<?xml version="1.0" encoding="UTF-8"?>
<svg width="70px" height="40px" viewBox="0 0 70 40" version="1.1" xmlns="http://www.w3.org/2000/svg" xmlns:xlink="http://www.w3.org/1999/xlink">
    <!-- Generator: Sketch 47.1 (45422) - http://www.bohemiancoding.com/sketch -->
    <title>Untitled</title>
    <desc>Created with Sketch.</desc>
    <defs>
        <path d="M35,20 L70,20 L70,40 L35,20 Z M35,20 L35,40 L0,40 L35,20 Z M35,20 L0,20 L0,0 L35,20 Z M35,20 L35,0 L70,0 L35,20 Z" id="path-1"></path>
    </defs>
    <g id="Page-1" stroke="none" stroke-width="1" fill="none" fill-rule="evenodd">
        <g id="angleterre-logo">
            <polygon id="Shape" fill="#00247D" fill-rule="nonzero" points="0 0 0 40 70 40 70 0"></polygon>
            <path d="M0,0 L70,40 M70,0 L0,40" id="Shape" stroke="#FFFFFF" stroke-width="6" fill="#000000" fill-rule="nonzero"></path>
            <g id="Clipped">
                <g id="Shape-Clipped">
                    <mask id="mask-2" fill="white">
                        <use xlink:href="#path-1"></use>
                    </mask>
                    <g id="path-1"></g>
                    <path d="M0,0 L70,40 M70,0 L0,40" id="Shape" stroke="#CF142B" stroke-width="4" fill="#000000" fill-rule="nonzero" mask="url(#mask-2)"></path>
                </g>
            </g>
            <path d="M35,0 L35,40 M0,20 L70,20" id="Shape" stroke="#FFFFFF" stroke-width="10" fill="#000000" fill-rule="nonzero"></path>
            <path d="M35,0 L35,40 M0,20 L70,20" id="Shape" stroke="#CF142B" stroke-width="6" fill="#000000" fill-rule="nonzero"></path>
        </g>
    </g>
</svg>