<?xml version="1.0" encoding="utf-8"?>
<!-- Generator: Adobe Illustrator 17.0.0, SVG Export Plug-In . SVG Version: 6.00 Build 0)  -->
<!DOCTYPE svg PUBLIC "-//W3C//DTD SVG 1.1//EN" "http://www.w3.org/Graphics/SVG/1.1/DTD/svg11.dtd">
<svg version="1.1" id="Calque_1" xmlns="http://www.w3.org/2000/svg"  x="0px" y="0px"
	 width="340.157px" height="340.157px" viewBox="0 0 340.157 340.157" enable-background="new 0 0 340.157 340.157"
	 xml:space="preserve">
<g>
	<g>
		<g>
			<path fill="#F6F6F6" d="M242.781,193.336c0-45.501-36.804-82.388-82.205-82.388s-82.205,36.886-82.205,82.388
				c0,28.148,14.094,52.987,35.586,67.849h93.237C228.686,246.323,242.781,221.484,242.781,193.336z"/>
		</g>
		
			<line fill="none" stroke="#413D4C" stroke-width="1.5" stroke-linecap="round" stroke-miterlimit="10" x1="107.101" y1="261.185" x2="214.051" y2="261.185"/>
		
			<line fill="none" stroke="#C9A7CB" stroke-width="1.5" stroke-linecap="round" stroke-linejoin="round" stroke-miterlimit="10" x1="125.641" y1="270.907" x2="195.512" y2="270.907"/>
		<g>
			
				<line fill="none" stroke="#C9A7CB" stroke-width="1.5" stroke-linecap="round" stroke-linejoin="round" stroke-miterlimit="10" x1="147.393" y1="280.63" x2="161.435" y2="280.63"/>
			
				<line fill="none" stroke="#C9A7CB" stroke-width="1.5" stroke-linecap="round" stroke-linejoin="round" stroke-miterlimit="10" x1="170.007" y1="280.63" x2="173.759" y2="280.63"/>
		</g>
	</g>
	<g>
		<path fill="#FFE28A" d="M258.151,98.699c0.007-0.605,0.215-3.612,3.606-3.612c0.005,0,0.006,0,0.006,0c0.007,0,0.012,0,0.016,0
			h0.001h0.004h0.004h0.004c0.647-0.019,1.167-0.549,1.167-1.202c0-0.662-0.535-1.198-1.196-1.202
			c-0.605-0.007-3.612-0.215-3.612-3.606c0-0.664-0.538-1.202-1.202-1.202s-1.202,0.538-1.202,1.202
			c0,3.392-3.008,3.599-3.612,3.606c-0.661,0.004-1.196,0.54-1.196,1.202c0,0.664,0.538,1.202,1.202,1.202
			c3.394,0,3.599,3.01,3.606,3.606c0,0.005,0,0.006,0,0.006c0.001,0.008,0.004,0.019,0,0.017v0.004v0.004v0.005
			c0.019,0.647,0.549,1.167,1.202,1.167C257.611,99.895,258.148,99.36,258.151,98.699z"/>
		<path fill="#FFE28A" d="M217.651,153.398c0.007-0.605,0.215-3.612,3.606-3.612c0.005,0,0.006,0,0.006,0c0.007,0,0.012,0,0.012,0
			h0.006h0.004h0.004h0.004c0.647-0.019,1.167-0.549,1.167-1.202c0-0.662-0.535-1.198-1.196-1.202
			c-0.605-0.007-3.612-0.215-3.612-3.606c0-0.664-0.538-1.202-1.202-1.202s-1.202,0.538-1.202,1.202
			c0,3.392-3.008,3.599-3.612,3.606c-0.661,0.004-1.196,0.54-1.196,1.202c0,0.664,0.538,1.202,1.202,1.202
			c3.394,0,3.599,3.01,3.606,3.606c0,0.005,0,0.006,0,0.006c0.001,0.008,0.004,0.019,0,0.017v0.004v0.004v0.005
			c0.019,0.647,0.549,1.167,1.202,1.167C217.111,154.594,217.647,154.059,217.651,153.398z"/>
		<path fill="#FFE28A" d="M243.382,129.954c0.004-0.302,0.107-1.806,1.803-1.806h0.004h0.007h0.001h0.002h0.002h0.001
			c0.325-0.01,0.585-0.275,0.585-0.601c0-0.331-0.268-0.599-0.598-0.601c-0.302-0.004-1.806-0.108-1.806-1.803
			c0-0.332-0.269-0.601-0.601-0.601s-0.601,0.269-0.601,0.601c0,1.696-1.504,1.8-1.806,1.803c-0.33,0.002-0.598,0.27-0.598,0.601
			c0,0.332,0.269,0.601,0.601,0.601c1.697,0,1.8,1.505,1.803,1.803v0.004c0.001,0.003,0.002,0.008,0.002,0.008l-0.002,0.001v0.001
			v0.002c0.009,0.323,0.275,0.584,0.601,0.584C243.112,130.553,243.38,130.285,243.382,129.954z"/>
		<path fill="#FFE28A" d="M214.652,99.486c0.004-0.302,0.107-1.806,1.803-1.806h0.004h0.007h0.001h0.002h0.002h0.001
			c0.325-0.01,0.585-0.275,0.585-0.601c0-0.331-0.268-0.599-0.598-0.601c-0.302-0.004-1.806-0.108-1.806-1.803
			c0-0.332-0.269-0.601-0.601-0.601s-0.601,0.269-0.601,0.601c0,1.696-1.504,1.8-1.806,1.803c-0.33,0.002-0.598,0.27-0.598,0.601
			c0,0.332,0.269,0.601,0.601,0.601c1.697,0,1.8,1.505,1.803,1.803v0.004c0.001,0.003,0.002,0.008,0.002,0.008l-0.002,0.001v0.002
			v0.002c0.009,0.323,0.275,0.584,0.601,0.584C214.382,100.085,214.65,99.817,214.652,99.486z"/>
		<path fill="#FFE28A" d="M243.382,222.575c0.004-0.302,0.107-1.806,1.803-1.806h0.004h0.007h0.001h0.002h0.002h0.001
			c0.325-0.01,0.585-0.275,0.585-0.601c0-0.331-0.268-0.599-0.598-0.601c-0.302-0.004-1.806-0.108-1.806-1.803
			c0-0.332-0.269-0.601-0.601-0.601s-0.601,0.269-0.601,0.601c0,1.696-1.504,1.799-1.806,1.803c-0.33,0.002-0.598,0.27-0.598,0.601
			c0,0.332,0.269,0.601,0.601,0.601c1.697,0,1.8,1.505,1.803,1.803c0,0.002,0,0.003,0,0.003c0.001,0.004,0.002,0.01,0.002,0.01
			l-0.002,0.001v0.002v0.002c0.009,0.323,0.275,0.584,0.601,0.584C243.112,223.173,243.38,222.905,243.382,222.575z"/>
		<path fill="#FFE28A" d="M236.265,64.94c0.003-0.302,0.107-1.806,1.803-1.806h0.004h0.007h0.001h0.002h0.001h0.001
			c0.325-0.01,0.585-0.275,0.585-0.601c0-0.331-0.268-0.599-0.598-0.601c-0.302-0.004-1.806-0.108-1.806-1.803
			c0-0.332-0.269-0.601-0.601-0.601c-0.332,0-0.601,0.269-0.601,0.601c0,1.696-1.504,1.8-1.806,1.803
			c-0.331,0.002-0.598,0.27-0.598,0.601c0,0.332,0.269,0.601,0.601,0.601c1.697,0,1.8,1.505,1.803,1.803c0,0.002,0,0.003,0,0.003
			c0.001,0.004,0.002,0.01,0.002,0.01l-0.002,0.001v0.001v0.002c0.009,0.323,0.275,0.584,0.601,0.584
			C235.995,65.538,236.263,65.27,236.265,64.94z"/>
	</g>
	<g id="XMLID_25_">
		<g>
			<path fill="#B17BB0" d="M266.457,135.635v74.954c0,1.513-1.061,2.733-2.36,2.733h-3.055c-1.308,0-2.369-1.22-2.369-2.733v-37.477
				v-37.477c0-1.504,1.061-2.733,2.369-2.733h3.055C265.396,132.902,266.457,134.131,266.457,135.635z"/>
			<path fill="#B17BB0" d="M78.878,178.114c0,1.683-1.088,3.045-2.442,3.045h-0.293c-1.354,0-2.442-1.362-2.442-3.045v-10.005
				c0-1.674,1.088-3.036,2.442-3.036h0.293c1.354,0,2.442,1.362,2.442,3.036v2.326h-0.384c-1.436,0-2.588,1.201-2.588,2.676
				c0,1.485,1.152,2.686,2.588,2.686h0.384V178.114z"/>
			<path fill="#B17BB0" d="M171.336,161.366c0.969,0,1.756,1.201,1.756,2.686c0,1.371-0.677,2.497-1.546,2.657V166.7
				c-0.037,0.009-0.073,0.009-0.101,0.019c-0.037,0.009-0.073,0.009-0.11,0.009h-4.28c-0.037,0-0.064,0-0.101-0.009
				c-0.037-0.009-0.064-0.009-0.101-0.019v0.009c-0.869-0.161-1.546-1.286-1.546-2.657c0-0.747,0.192-1.409,0.512-1.901
				c0.32-0.482,0.759-0.785,1.235-0.785H171.336z"/>
			<path fill="#B17BB0" d="M162.19,161.366c0.969,0,1.756,1.201,1.756,2.686c0,1.371-0.677,2.497-1.546,2.657V166.7
				c-0.037,0.009-0.073,0.009-0.101,0.019c-0.037,0.009-0.073,0.009-0.11,0.009h-4.28c-0.037,0-0.064,0-0.101-0.009
				c-0.037-0.009-0.064-0.009-0.101-0.019v0.009c-0.869-0.161-1.546-1.286-1.546-2.657c0-0.747,0.192-1.409,0.512-1.901
				c0.32-0.482,0.759-0.785,1.235-0.785H162.19z"/>
			<path fill="#B17BB0" d="M153.044,161.366c0.969,0,1.756,1.201,1.756,2.686c0,1.371-0.677,2.497-1.546,2.657V166.7
				c-0.037,0.009-0.073,0.009-0.101,0.019c-0.037,0.009-0.073,0.009-0.11,0.009h-4.28c-0.037,0-0.064,0-0.101-0.009
				c-0.037-0.009-0.064-0.009-0.101-0.019v0.009c-0.869-0.161-1.546-1.286-1.546-2.657c0-0.747,0.192-1.409,0.512-1.901
				c0.32-0.482,0.759-0.785,1.235-0.785H153.044z"/>
			<path fill="#C9A7CB" d="M153.501,168.08v2.355v5.362v0.009c-0.759,0-1.509,0.009-2.25,0.009c-0.96,0.009-1.912,0.019-2.854,0.028
				c-0.027,0-0.055,0-0.082,0v-0.047v-5.362v-2.355c0-0.501,0.091-0.955,0.247-1.371c0.027,0.009,0.064,0.009,0.101,0.009
				c0.037,0.009,0.064,0.009,0.101,0.009h4.28c0.037,0,0.073,0,0.11-0.009c0.027,0,0.064,0,0.101-0.009
				C153.401,167.125,153.501,167.579,153.501,168.08z"/>
			<path fill="#C9A7CB" d="M162.647,170.435v5.362c-0.86,0-1.729,0-2.598,0c-0.869,0-1.729,0-2.588,0v-5.362v-2.355
				c0-0.501,0.091-0.955,0.247-1.371c0.027,0.009,0.064,0.009,0.101,0.009c0.037,0.009,0.064,0.009,0.101,0.009h4.28
				c0.037,0,0.073,0,0.11-0.009c0.027,0,0.064,0,0.101-0.009c0.146,0.416,0.247,0.87,0.247,1.371V170.435z"/>
			<path fill="#C9A7CB" d="M171.794,168.08v2.355v5.362v0.047c-0.037,0-0.064,0-0.091,0c-0.942-0.009-1.893-0.019-2.854-0.028
				c-0.741,0-1.491-0.009-2.241-0.009v-0.009v-5.362v-2.355c0-0.501,0.091-0.955,0.247-1.371c0.027,0.009,0.064,0.009,0.101,0.009
				c0.037,0.009,0.064,0.009,0.101,0.009h4.28c0.037,0,0.073,0,0.11-0.009c0.027,0,0.064,0,0.101-0.009
				C171.693,167.125,171.794,167.579,171.794,168.08z"/>
			<path fill="#C9A7CB" d="M171.794,231.942c0,1.664-0.942,3.007-2.104,3.007h-0.988c-1.152,0-2.094-1.343-2.094-3.007v-4.464
				v-5.494v-0.019v-0.009v-0.057v-3.565V199.76v-3.565v-14.847c1.701-0.028,3.43-0.038,5.186-0.047v0.047v15.131v3.641v17.741v3.641
				v0.378v0.123v0.009v5.362V231.942z"/>
			<path fill="#C9A7CB" d="M150.41,234.949c-1.152,0-2.094-1.343-2.094-3.007v-4.482v-5.494v-0.009v-0.265v-3.641v-17.93v-3.641
				v-15.131c1.701-0.028,3.43-0.038,5.186-0.047v14.894v3.565V218.4v3.565v0.038v0.009v5.494v4.435c0,1.664-0.942,3.007-2.104,3.007
				H150.41z"/>
			<path fill="#C9A7CB" d="M162.647,231.942c0,1.664-0.942,3.007-2.104,3.007h-0.988c-1.152,0-2.094-1.343-2.094-3.007v-4.435
				v-5.485v-0.009v-0.047v-0.009v-3.499v-18.753v-3.556v-14.8c1.637-0.028,3.293-0.038,4.985-0.047c0.073,0,0.137,0,0.201,0v14.847
				v3.556v18.743v3.556v0.009v5.485V231.942z"/>
			<path fill="#FFE28A" d="M166.608,221.984v5.494c-1.299,0.009-2.634,0.009-3.96,0.019v-5.485
				C163.974,222.003,165.3,221.993,166.608,221.984z"/>
			<path fill="#FFE28A" d="M157.462,222.021v5.485c-1.335,0-2.652,0-3.96,0v-5.494C154.809,222.012,156.126,222.012,157.462,222.021
				z"/>
			<path fill="#FBC039" d="M157.462,222.012c-1.354,0-2.68-0.009-3.96-0.047V218.4c1.271,0.038,2.598,0.047,3.96,0.057v3.499v0.009
				V222.012z"/>
			<path fill="#FBC039" d="M166.608,218.333v3.565c-1.29,0.057-2.607,0.085-3.96,0.104v-3.556
				C164.01,218.428,165.327,218.4,166.608,218.333z"/>
			<path fill="#FBC039" d="M166.608,196.195v3.565c-1.28-0.038-2.598-0.057-3.96-0.057v-3.556
				C164.001,196.148,165.318,196.167,166.608,196.195z"/>
			<path fill="#FBC039" d="M157.462,196.148v3.556c-1.363,0.009-2.689,0.019-3.96,0.057v-3.565
				C154.782,196.167,156.108,196.148,157.462,196.148z"/>
			<path fill="#FBC039" d="M148.315,218.05v3.641c-8.414-0.785-14.186-3.471-14.186-12.615c0-9.116,5.771-11.802,14.186-12.596
				v3.641c-6.183,0.757-10.299,2.903-10.299,8.956C138.017,215.146,142.133,217.293,148.315,218.05z"/>
			<path fill="#FBC039" d="M171.794,196.479c8.414,0.794,14.186,3.48,14.186,12.596c0,8.416-5.771,11.395-14.186,12.426v-3.641
				c6.183-0.917,10.299-3.196,10.299-8.785c0-6.052-4.116-8.19-10.299-8.956V196.479z"/>
			<path fill="#FFE28A" d="M258.673,173.111v37.477c0-18.195-20.195-34.791-31.518-34.791h-55.362v-5.362h55.362
				c11.021,0,31.518-16.606,31.518-34.801V173.111z"/>
			<path fill="#FFE28A" d="M160.05,175.797c0.869,0,1.738,0,2.598,0c1.335,0,2.652,0,3.96,0.009c0.75,0,1.5,0.009,2.241,0.009
				c0.96,0.009,1.912,0.019,2.854,0.028c0.027,0,0.055,0,0.091,0c26.286,0.359,46.06,3.215,46.06,25.807
				c0,20.852-19.774,25.004-46.06,25.722v-5.362v-0.009v-0.123c22.975-0.653,40.115-4.085,40.115-20.228
				c0-17.495-17.14-19.954-40.115-20.304v-0.047c-1.756,0.009-3.485,0.019-5.186,0.047c0,0-1.747-0.028-3.96-0.047
				c-0.064,0-0.128,0-0.201,0c-0.768-0.009-1.582-0.009-2.396-0.009c-2.223,0-4.408,0-6.549,0.009
				c-1.756,0.009-3.485,0.019-5.186,0.047c-11.497,0.17-21.521,0.879-28.673,3.726c-7.161,2.837-11.442,7.83-11.442,16.578
				c0,17.542,17.131,19.973,40.115,20.313v5.494c-26.286-0.35-46.06-3.149-46.06-25.807c0-22.602,19.765-25.448,46.06-25.807
				c0.027,0,0.055,0,0.082,0c0.942-0.009,1.893-0.019,2.854-0.028c0.741,0,1.491-0.009,2.25-0.009
				c1.308-0.009,2.625-0.009,3.96-0.009C158.321,175.797,159.181,175.797,160.05,175.797z"/>
			<path fill="#FFE28A" d="M148.315,170.435v5.362H78.878h-0.384c-1.436,0-2.588-1.201-2.588-2.686c0-1.475,1.152-2.676,2.588-2.676
				h0.384H148.315z"/>
			
				<path fill="none" stroke="#FFFFFF" stroke-width="1.5" stroke-linecap="round" stroke-linejoin="round" stroke-miterlimit="10" d="
				M251.23,162.542c0.6-0.655,1.165-1.329,1.692-2.013"/>
			
				<path fill="none" stroke="#FFFFFF" stroke-width="1.5" stroke-linecap="round" stroke-linejoin="round" stroke-miterlimit="10" d="
				M238.669,171.143c3.835-1.085,7.309-3.319,10.167-6.026"/>
		</g>
		<g>
			<path fill="none" stroke="#413D4C" stroke-miterlimit="10" d="M258.673,135.635c0-1.504,1.061-2.733,2.369-2.733h3.055
				c1.299,0,2.36,1.229,2.36,2.733v74.954c0,1.513-1.061,2.733-2.36,2.733h-3.055c-1.308,0-2.369-1.22-2.369-2.733"/>
			<path fill="none" stroke="#413D4C" stroke-miterlimit="10" d="M78.878,170.435v-2.326c0-1.674-1.088-3.036-2.442-3.036h-0.293
				c-1.354,0-2.442,1.362-2.442,3.036v10.005c0,1.683,1.088,3.045,2.442,3.045h0.293c1.354,0,2.442-1.362,2.442-3.045v-2.317"/>
			
				<path fill="none" stroke="#413D4C" stroke-width="1.0006" stroke-linecap="round" stroke-linejoin="round" stroke-miterlimit="10" d="
				M148.663,166.719c-0.037,0-0.073,0-0.101-0.009c-0.869-0.161-1.546-1.286-1.546-2.657c0-0.747,0.192-1.409,0.512-1.901
				c0.32-0.482,0.759-0.785,1.235-0.785h4.28c0.969,0,1.756,1.201,1.756,2.686c0,1.371-0.677,2.497-1.546,2.657
				c-0.037,0.009-0.073,0.009-0.101,0.009"/>
			
				<path fill="none" stroke="#413D4C" stroke-width="1.0006" stroke-linecap="round" stroke-linejoin="round" stroke-miterlimit="10" d="
				M157.809,166.719c-0.037,0-0.073,0-0.101-0.009c-0.869-0.161-1.546-1.286-1.546-2.657c0-0.747,0.192-1.409,0.512-1.901
				c0.32-0.482,0.759-0.785,1.235-0.785h4.28c0.969,0,1.756,1.201,1.756,2.686c0,1.371-0.677,2.497-1.546,2.657
				c-0.037,0.009-0.073,0.009-0.101,0.009"/>
			
				<line fill="none" stroke="#413D4C" stroke-width="1.0006" stroke-linecap="round" stroke-linejoin="round" stroke-miterlimit="10" x1="162.647" y1="175.797" x2="166.608" y2="175.797"/>
			
				<line fill="none" stroke="#413D4C" stroke-width="1.0006" stroke-linecap="round" stroke-linejoin="round" stroke-miterlimit="10" x1="166.608" y1="170.435" x2="162.647" y2="170.435"/>
			
				<line fill="none" stroke="#413D4C" stroke-width="1.0006" stroke-linecap="round" stroke-linejoin="round" stroke-miterlimit="10" x1="153.501" y1="175.797" x2="157.462" y2="175.797"/>
			
				<line fill="none" stroke="#413D4C" stroke-width="1.0006" stroke-linecap="round" stroke-linejoin="round" stroke-miterlimit="10" x1="157.462" y1="170.435" x2="153.501" y2="170.435"/>
			
				<path fill="none" stroke="#413D4C" stroke-width="1.0006" stroke-linecap="round" stroke-linejoin="round" stroke-miterlimit="10" d="
				M148.315,170.435H78.878h-0.384c-1.436,0-2.588,1.201-2.588,2.676c0,1.485,1.152,2.686,2.588,2.686h0.384h69.438"/>
			
				<path fill="none" stroke="#413D4C" stroke-width="1.0006" stroke-linecap="round" stroke-linejoin="round" stroke-miterlimit="10" d="
				M171.794,175.797h55.362c11.323,0,31.518,16.597,31.518,34.791v-37.477v-37.477c0,18.195-20.497,34.801-31.518,34.801h-55.362"/>
			
				<path fill="none" stroke="#413D4C" stroke-width="1.0006" stroke-linecap="round" stroke-linejoin="round" stroke-miterlimit="10" d="
				M166.955,166.719c-0.037,0-0.073,0-0.101-0.009c-0.869-0.161-1.546-1.286-1.546-2.657c0-0.747,0.192-1.409,0.512-1.901
				c0.32-0.482,0.759-0.785,1.235-0.785h4.28c0.969,0,1.756,1.201,1.756,2.686c0,1.371-0.677,2.497-1.546,2.657
				c-0.037,0.009-0.073,0.009-0.101,0.009"/>
			<path fill="none" stroke="#413D4C" stroke-miterlimit="10" d="M171.794,175.844v-0.047v-5.362v-2.355
				c0-0.501-0.101-0.955-0.247-1.371V166.7c-0.037,0.009-0.073,0.009-0.101,0.019c-0.037,0.009-0.073,0.009-0.11,0.009h-4.28
				c-0.037,0-0.064,0-0.101-0.009c-0.037-0.009-0.064-0.009-0.101-0.019v0.009c-0.155,0.416-0.247,0.87-0.247,1.371v2.355v5.362
				v0.009"/>
			<path fill="none" stroke="#413D4C" stroke-miterlimit="10" d="M168.849,175.816c0.96,0.009,1.912,0.019,2.854,0.028"/>
			<path fill="none" stroke="#413D4C" stroke-miterlimit="10" d="M162.647,175.797v-5.362v-2.355c0-0.501-0.101-0.955-0.247-1.371
				V166.7c-0.037,0.009-0.073,0.009-0.101,0.019c-0.037,0.009-0.073,0.009-0.11,0.009h-4.28c-0.037,0-0.064,0-0.101-0.009
				c-0.037-0.009-0.064-0.009-0.101-0.019v0.009c-0.155,0.416-0.247,0.87-0.247,1.371v2.355v5.362"/>
			<path fill="none" stroke="#413D4C" stroke-miterlimit="10" d="M153.501,175.807v-0.009v-5.362v-2.355
				c0-0.501-0.101-0.955-0.247-1.371V166.7c-0.037,0.009-0.073,0.009-0.101,0.019c-0.037,0.009-0.073,0.009-0.11,0.009h-4.28
				c-0.037,0-0.064,0-0.101-0.009c-0.037-0.009-0.064-0.009-0.101-0.019v0.009c-0.155,0.416-0.247,0.87-0.247,1.371v2.355v5.362
				v0.047"/>
			<path fill="none" stroke="#413D4C" stroke-miterlimit="10" d="M148.398,175.844c0.942-0.009,1.893-0.019,2.854-0.028"/>
			
				<path fill="none" stroke="#413D4C" stroke-width="1.0006" stroke-linecap="round" stroke-linejoin="round" stroke-miterlimit="10" d="
				M148.315,196.479c-8.414,0.794-14.186,3.48-14.186,12.596c0,9.145,5.771,11.83,14.186,12.615"/>
			
				<path fill="none" stroke="#413D4C" stroke-width="1.0006" stroke-linecap="round" stroke-linejoin="round" stroke-miterlimit="10" d="
				M153.501,221.965c1.28,0.038,2.607,0.047,3.96,0.047"/>
			
				<path fill="none" stroke="#413D4C" stroke-width="1.0006" stroke-linecap="round" stroke-linejoin="round" stroke-miterlimit="10" d="
				M157.462,196.148c-1.354,0-2.68,0.019-3.96,0.047"/>
			
				<path fill="none" stroke="#413D4C" stroke-width="1.0006" stroke-linecap="round" stroke-linejoin="round" stroke-miterlimit="10" d="
				M162.647,222.003c1.354-0.019,2.671-0.047,3.96-0.104"/>
			
				<path fill="none" stroke="#413D4C" stroke-width="1.0006" stroke-linecap="round" stroke-linejoin="round" stroke-miterlimit="10" d="
				M166.608,196.195c-1.29-0.028-2.607-0.047-3.96-0.047"/>
			
				<path fill="none" stroke="#413D4C" stroke-width="1.0006" stroke-linecap="round" stroke-linejoin="round" stroke-miterlimit="10" d="
				M171.794,221.501c8.414-1.031,14.186-4.01,14.186-12.426c0-9.116-5.771-11.802-14.186-12.596"/>
			
				<path fill="none" stroke="#413D4C" stroke-width="1.0006" stroke-linecap="round" stroke-linejoin="round" stroke-miterlimit="10" d="
				M148.315,200.12c-6.183,0.757-10.299,2.903-10.299,8.956c0,6.071,4.116,8.218,10.299,8.974"/>
			
				<path fill="none" stroke="#413D4C" stroke-width="1.0006" stroke-linecap="round" stroke-linejoin="round" stroke-miterlimit="10" d="
				M153.501,218.4c1.271,0.038,2.598,0.047,3.96,0.057"/>
			
				<path fill="none" stroke="#413D4C" stroke-width="1.0006" stroke-linecap="round" stroke-linejoin="round" stroke-miterlimit="10" d="
				M157.462,199.704c-1.363,0.009-2.689,0.019-3.96,0.057"/>
			
				<path fill="none" stroke="#413D4C" stroke-width="1.0006" stroke-linecap="round" stroke-linejoin="round" stroke-miterlimit="10" d="
				M162.647,218.447c1.363-0.019,2.68-0.047,3.96-0.113"/>
			
				<path fill="none" stroke="#413D4C" stroke-width="1.0006" stroke-linecap="round" stroke-linejoin="round" stroke-miterlimit="10" d="
				M166.608,199.76c-1.28-0.038-2.598-0.057-3.96-0.057"/>
			
				<path fill="none" stroke="#413D4C" stroke-width="1.0006" stroke-linecap="round" stroke-linejoin="round" stroke-miterlimit="10" d="
				M171.794,217.861c6.183-0.917,10.299-3.196,10.299-8.785c0-6.052-4.116-8.19-10.299-8.956"/>
			
				<path fill="none" stroke="#413D4C" stroke-width="1.0006" stroke-linecap="round" stroke-linejoin="round" stroke-miterlimit="10" d="
				M171.794,221.88c22.975-0.653,40.115-4.085,40.115-20.228c0-17.495-17.14-19.954-40.115-20.304"/>
			<path fill="none" stroke="#413D4C" stroke-miterlimit="10" d="M171.794,227.374c26.286-0.719,46.06-4.87,46.06-25.722
				c0-22.592-19.774-25.448-46.06-25.807c-0.037,0-0.064,0-0.091,0c-0.942-0.009-1.893-0.019-2.854-0.028
				c-0.741,0-1.491-0.009-2.241-0.009c-1.308-0.009-2.625-0.009-3.96-0.009c-0.86,0-1.729,0-2.598,0c-0.869,0-1.729,0-2.588,0
				c-1.335,0-2.652,0-3.96,0.009c-0.759,0-1.509,0.009-2.25,0.009c-0.96,0.009-1.912,0.019-2.854,0.028c-0.027,0-0.055,0-0.082,0
				c-26.295,0.359-46.06,3.206-46.06,25.807c0,22.658,19.774,25.457,46.06,25.807"/>
			<path fill="none" stroke="#413D4C" stroke-miterlimit="10" d="M162.647,227.497c1.326-0.009,2.662-0.009,3.96-0.019"/>
			<path fill="none" stroke="#413D4C" stroke-miterlimit="10" d="M153.501,227.506c1.308,0,2.625,0,3.96,0"/>
			<polyline fill="none" stroke="#413D4C" stroke-miterlimit="10" points="162.647,222.012 162.647,222.003 162.647,218.447 
				162.647,199.704 162.647,196.148 162.647,181.301 			"/>
			<path fill="none" stroke="#413D4C" stroke-miterlimit="10" d="M162.446,181.301c-1.692,0.009-3.348,0.019-4.985,0.047v14.8v3.556
				v18.753v3.499v0.009v0.047v0.009"/>
			
				<path fill="none" stroke="#413D4C" stroke-width="1.0006" stroke-linecap="round" stroke-linejoin="round" stroke-miterlimit="10" d="
				M166.608,181.348c0,0-1.747-0.028-3.96-0.047c-0.064,0-0.128,0-0.201,0c-0.768-0.009-1.582-0.009-2.396-0.009
				c-2.223,0-4.408,0-6.549,0.009"/>
			
				<path fill="none" stroke="#413D4C" stroke-width="1.0006" stroke-linecap="round" stroke-linejoin="round" stroke-miterlimit="10" d="
				M153.501,222.012c1.308,0,2.625,0,3.96,0.009v5.485v4.435c0,1.664,0.942,3.007,2.094,3.007h0.988
				c1.162,0,2.104-1.343,2.104-3.007v-4.445v-5.485c1.326-0.009,2.652-0.019,3.96-0.028"/>
			
				<path fill="none" stroke="#413D4C" stroke-width="1.0006" stroke-linecap="round" stroke-linejoin="round" stroke-miterlimit="10" d="
				M148.315,181.348c-11.497,0.17-21.521,0.879-28.673,3.726c-7.161,2.837-11.442,7.83-11.442,16.578
				c0,17.542,17.131,19.973,40.115,20.313"/>
			<path fill="none" stroke="#413D4C" stroke-miterlimit="10" d="M148.315,181.348v15.131v3.641v17.93v3.641v0.265v0.009v5.494
				v4.482c0,1.664,0.942,3.007,2.094,3.007h0.988c1.162,0,2.104-1.343,2.104-3.007v-4.435v-5.494v-0.009v-0.038V218.4V199.76v-3.565
				v-14.894C151.745,181.31,150.017,181.32,148.315,181.348z"/>
			<path fill="none" stroke="#413D4C" stroke-miterlimit="10" d="M166.608,181.348v14.847v3.565v18.573v3.565v0.057v0.009v0.019
				v5.494v4.464c0,1.664,0.942,3.007,2.094,3.007h0.988c1.162,0,2.104-1.343,2.104-3.007v-4.568v-5.362v-0.009v-0.123v-0.378v-3.641
				V200.12v-3.641v-15.131v-0.047C170.038,181.31,168.309,181.32,166.608,181.348z"/>
		</g>
	</g>
</g>
</svg>
