<?xml version="1.0" encoding="utf-8"?>
<!-- Generator: Adobe Illustrator 17.0.0, SVG Export Plug-In . SVG Version: 6.00 Build 0)  -->
<!DOCTYPE svg PUBLIC "-//W3C//DTD SVG 1.1//EN" "http://www.w3.org/Graphics/SVG/1.1/DTD/svg11.dtd">
<svg version="1.1" id="Calque_1" xmlns="http://www.w3.org/2000/svg" xmlns:xlink="http://www.w3.org/1999/xlink" x="0px" y="0px"
	 width="340.157px" height="340.157px" viewBox="0 0 340.157 340.157" enable-background="new 0 0 340.157 340.157"
	 xml:space="preserve">
<g>
	<g>
		<g>
			<path fill="#F6F6F6" d="M252.283,193.336c0-45.501-36.804-82.388-82.205-82.388s-82.205,36.886-82.205,82.388
				c0,28.148,14.094,52.987,35.586,67.849h93.238C238.189,246.323,252.283,221.484,252.283,193.336z"/>
		</g>
		
			<line fill="none" stroke="#413D4C" stroke-width="1.5" stroke-linecap="round" stroke-miterlimit="10" x1="116.604" y1="261.184" x2="223.553" y2="261.184"/>
		
			<line fill="none" stroke="#C9A7CB" stroke-width="1.5" stroke-linecap="round" stroke-linejoin="round" stroke-miterlimit="10" x1="135.143" y1="270.907" x2="205.014" y2="270.907"/>
		<g>
			
				<line fill="none" stroke="#C9A7CB" stroke-width="1.5" stroke-linecap="round" stroke-linejoin="round" stroke-miterlimit="10" x1="156.896" y1="280.63" x2="170.937" y2="280.63"/>
			
				<line fill="none" stroke="#C9A7CB" stroke-width="1.5" stroke-linecap="round" stroke-linejoin="round" stroke-miterlimit="10" x1="179.51" y1="280.63" x2="183.262" y2="280.63"/>
		</g>
	</g>
	<g>
		<path fill="#FFE28A" d="M146.748,70.352c0.007-0.605,0.215-3.612,3.606-3.612c0.005,0,0.006,0,0.006,0c0.007,0,0.012,0,0.016,0
			h0.001h0.004h0.004h0.004c0.647-0.019,1.167-0.549,1.167-1.202c0-0.662-0.535-1.198-1.196-1.202
			c-0.605-0.007-3.612-0.215-3.612-3.606c0-0.664-0.538-1.202-1.202-1.202c-0.664,0-1.202,0.538-1.202,1.202
			c0,3.392-3.008,3.599-3.612,3.606c-0.661,0.004-1.196,0.54-1.196,1.202c0,0.664,0.538,1.202,1.202,1.202
			c3.394,0,3.599,3.01,3.606,3.606c0,0.005,0,0.006,0,0.006c0.001,0.008,0.004,0.019,0,0.017v0.004v0.004v0.005
			c0.019,0.647,0.549,1.167,1.202,1.167C146.208,71.548,146.745,71.013,146.748,70.352z"/>
		<path fill="#FFE28A" d="M127.524,163.192c0.007-0.604,0.215-3.612,3.606-3.612c0.005,0,0.006,0,0.006,0h0.017h0.001
			c0.002,0,0.004,0,0.004,0h0.003h0.005c0.647-0.019,1.167-0.549,1.167-1.202c0-0.662-0.535-1.199-1.196-1.202
			c-0.604-0.007-3.612-0.215-3.612-3.606c0-0.664-0.538-1.202-1.202-1.202s-1.202,0.538-1.202,1.202
			c0,3.391-3.008,3.599-3.612,3.606c-0.661,0.003-1.196,0.54-1.196,1.202c0,0.664,0.538,1.202,1.202,1.202
			c3.394,0,3.599,3.01,3.606,3.606c0,0.005,0,0.006,0,0.006c0.001,0.008,0.004,0.019,0,0.018v0.004v0.003c0,0,0,0.002,0,0.005
			c0.019,0.647,0.549,1.167,1.202,1.167C126.984,164.389,127.521,163.853,127.524,163.192z"/>
		<path fill="#FFE28A" d="M206.216,121.372c0.007-0.605,0.215-3.612,3.606-3.612c0.005,0,0.006,0,0.006,0c0.007,0,0.012,0,0.012,0
			h0.006h0.004h0.004h0.004c0.647-0.019,1.167-0.549,1.167-1.202c0-0.662-0.535-1.198-1.196-1.202
			c-0.605-0.007-3.612-0.215-3.612-3.606c0-0.664-0.538-1.202-1.202-1.202s-1.202,0.538-1.202,1.202
			c0,3.392-3.008,3.599-3.612,3.606c-0.661,0.004-1.196,0.54-1.196,1.202c0,0.664,0.538,1.202,1.202,1.202
			c3.394,0,3.599,3.01,3.606,3.606c0,0.005,0,0.006,0,0.006c0.001,0.008,0.004,0.019,0,0.017v0.004v0.004v0.005
			c0.019,0.647,0.549,1.167,1.202,1.167C205.676,122.568,206.213,122.033,206.216,121.372z"/>
		<path fill="#FFE28A" d="M149.308,132.913c-0.017-0.302-0.015-1.809,1.677-1.923l0.004,0l0.007,0l0.001,0l0.002,0l0.001,0l0.001,0
			c0.323-0.031,0.565-0.314,0.543-0.639c-0.022-0.33-0.308-0.58-0.638-0.559c-0.302,0.017-1.809,0.014-1.923-1.677
			c-0.022-0.332-0.309-0.582-0.64-0.559c-0.332,0.022-0.582,0.309-0.559,0.64c0.114,1.692-1.379,1.897-1.68,1.921
			c-0.33,0.024-0.578,0.31-0.556,0.64c0.022,0.331,0.309,0.582,0.64,0.559c1.693-0.114,1.897,1.38,1.921,1.677
			c0,0.002,0,0.003,0,0.003c0.001,0.004,0.002,0.009,0.002,0.009l-0.002,0.001l0,0.001l0,0.002c0.031,0.322,0.313,0.564,0.639,0.542
			C149.079,133.529,149.329,133.243,149.308,132.913z"/>
		<path fill="#FFE28A" d="M192.882,151.358c0.004-0.302,0.107-1.806,1.803-1.806h0.004h0.007h0.001h0.002h0.002h0.001
			c0.325-0.01,0.585-0.275,0.585-0.601c0-0.331-0.268-0.599-0.598-0.601c-0.302-0.004-1.806-0.108-1.806-1.803
			c0-0.332-0.269-0.601-0.601-0.601s-0.601,0.269-0.601,0.601c0,1.696-1.504,1.8-1.806,1.803c-0.33,0.002-0.598,0.27-0.598,0.601
			c0,0.332,0.269,0.601,0.601,0.601c1.697,0,1.8,1.505,1.803,1.803c0,0.002,0,0.003,0,0.003c0.001,0.004,0.002,0.01,0.002,0.01
			l-0.002,0.001v0.001v0.002c0.009,0.323,0.275,0.584,0.601,0.584C192.612,151.956,192.88,151.688,192.882,151.358z"/>
	</g>
	<g id="XMLID_3_">
		<g>
			<path fill="#FFE28A" d="M174.432,201.13v2.8c-0.68,0.27-1.39,0.47-2.13,0.6v-2.49v-1.17c0.76-0.21,1.47-0.51,2.13-0.91V201.13z"
				/>
			<path fill="#FFE28A" d="M172.302,202.04v2.49c-0.68,0.13-1.39,0.2-2.12,0.21v-2.4v-1.18c0.73-0.01,1.45-0.11,2.12-0.29V202.04z"
				/>
			<path fill="#FFE28A" d="M170.182,202.34v2.4c-0.04,0-0.07,0-0.1,0c-0.21,0-0.42,0-0.62-0.02c-0.19,0-0.37-0.02-0.55-0.04
				c-0.18-0.02-0.35-0.04-0.53-0.06c-0.11-0.01-0.22-0.03-0.33-0.05v-2.47v-1.18c0.65,0.16,1.33,0.24,2.03,0.24c0.03,0,0.06,0,0.1,0
				V202.34z"/>
			<path fill="#FFE28A" d="M168.052,202.1v2.47c-0.07-0.01-0.15-0.02-0.22-0.04c-0.66-0.12-1.29-0.29-1.9-0.51v-2.77v-1.17
				c0.66,0.37,1.37,0.65,2.12,0.84V202.1z"/>
			<path fill="#413D4C" d="M177.962,80.94c1,0,1.81,0.8,1.81,1.79c0,0.99-0.81,1.79-1.81,1.79c-0.23,0-0.45-0.05-0.65-0.12v-3.33
				C177.512,80.99,177.732,80.94,177.962,80.94z"/>
			<path fill="#413D4C" d="M177.962,72.8c1,0,1.81,0.81,1.81,1.8s-0.81,1.79-1.81,1.79c-0.23,0-0.45-0.05-0.65-0.13v-3.33
				C177.512,72.85,177.732,72.8,177.962,72.8z"/>
			<path fill="#C9A7CB" d="M174.432,230.2v0.3h-2.13v-0.3v-14.46v-1.33c0.66,0.56,1.37,1.05,2.13,1.46v1.35V230.2z"/>
			<path fill="#C9A7CB" d="M172.302,230.2v0.3h-2.12v-0.3v-16.84v-1.3c0.61,0.87,1.32,1.66,2.12,2.35v1.33V230.2z"/>
			<path fill="#C9A7CB" d="M170.182,230.2v0.3h-2.13v-0.3v-21.97v-1.25c0.35,1.87,1.09,3.59,2.13,5.08v1.3V230.2z"/>
			<path fill="#C9A7CB" d="M168.052,230.2v0.3h-2.12v-0.3v-24.97v-1.21c0.61,0.22,1.24,0.39,1.9,0.51c0,0.84,0.07,1.66,0.22,2.45
				v1.25V230.2z"/>
			<path fill="#C9A7CB" d="M194.682,202.54c-0.06-0.33-0.09-0.66-0.09-1.01c0-7.43,3.56-18.51,3.56-22.9
				c0-8.49-9.44-15.59-22.05-17.33v17.13c1.41-1.09,3.13-1.74,5-1.74c4.76,0,8.63,4.21,8.63,9.41c0,3.04-3.39,3.5-3.39,7.47
				c0,3,4.55,5.58,5.69,9.3c0.16,0.53,0.25,1.08,0.25,1.66c0,7.06-5.48,12.78-12.22,12.78c-2.04,0-3.95-0.52-5.63-1.44v1.35v12.98
				v0.3h7.79c0.61,0,1.11,0.5,1.11,1.13v1.32c0,0.63-0.5,1.13-1.11,1.13h-24.29c-0.61,0-1.1-0.5-1.1-1.13v-1.32
				c0-0.63,0.49-1.13,1.1-1.13h8v-0.3v-24.97v-1.21c-4.61-1.68-7.9-6.07-7.9-11.22c0-4.42,2.42-8.27,6.02-10.33V161.3
				c-12.61,1.74-22.05,8.84-22.05,17.33c0,4.39,3.56,15.47,3.56,22.9s-14.03,8.67-14.03,32.65c0,14.92,14.94,27,38.55,27
				c23.6,0,38.55-12.08,38.55-27C208.632,211.32,195.882,209.13,194.682,202.54z"/>
			<path fill="#413D4C" d="M192.032,202.87c0.16,0.53,0.25,1.08,0.25,1.66c0,7.06-5.48,12.78-12.22,12.78
				c-2.04,0-3.95-0.52-5.63-1.44v-10.72v-1.22c4.5-1.72,7.69-6.06,7.69-11.13c0-4.42-2.42-8.27-6.02-10.33v-4.04
				c1.41-1.09,3.13-1.74,5-1.74c4.76,0,8.63,4.21,8.63,9.41c0,3.04-3.39,3.5-3.39,7.47
				C186.342,196.57,190.892,199.15,192.032,202.87z"/>
			<path fill="#FFFFFF" d="M174.432,230.5h7.79c0.61,0,1.11,0.5,1.11,1.13v1.32c0,0.63-0.5,1.13-1.11,1.13h-24.29
				c-0.61,0-1.1-0.5-1.1-1.13v-1.32c0-0.63,0.49-1.13,1.1-1.13h8h2.12h2.13h2.12H174.432z"/>
			<path fill="#FFE28A" d="M176.102,182.47c3.6,2.06,6.02,5.91,6.02,10.33c0,5.07-3.19,9.41-7.69,11.13v-2.8v-1.17
				c2.44-1.46,4.08-4.12,4.08-7.16c0-2.28-0.92-4.34-2.41-5.84V182.47z"/>
			<path fill="#413D4C" d="M177.962,89.07c1,0,1.81,0.81,1.81,1.79c0,0.99-0.81,1.8-1.81,1.8c-0.23,0-0.45-0.05-0.65-0.13V89.2
				C177.512,89.12,177.732,89.07,177.962,89.07z"/>
			<path fill="#413D4C" d="M176.102,186.96c1.49,1.5,2.41,3.56,2.41,5.84c0,3.04-1.64,5.7-4.08,7.16v-13.31v-0.01v-1
				c0.02,0.01,0.05,0.03,0.07,0.04c0.35,0.22,0.69,0.47,1.01,0.73c0.1,0.08,0.2,0.17,0.3,0.26
				C175.912,186.76,176.012,186.86,176.102,186.96z"/>
			<path fill="#B17BB0" d="M177.312,92.53v3.36c0,0.66-0.52,1.19-1.15,1.19h-0.06h-1.67h-2.13h-2.12h-2.13h-2.12h-1.88h-0.06
				c-0.63,0-1.14-0.53-1.14-1.19v-3.36V89.2v-4.8v-3.33v-4.81v-3.33v-3.31c0-0.66,0.51-1.19,1.14-1.19h12.17
				c0.63,0,1.15,0.53,1.15,1.19v3.31v3.33v4.81v3.33v4.8V92.53z"/>
			<path fill="#413D4C" d="M176.102,182.47v4.49c-0.09-0.1-0.2-0.19-0.29-0.29c-0.1-0.09-0.2-0.18-0.3-0.26
				c-0.32-0.26-0.66-0.51-1.01-0.73c-0.02-0.01-0.05-0.03-0.07-0.04v-23.81V97.08h1.67v64.22v17.13V182.47z"/>
			<path fill="#413D4C" d="M174.432,205.15v10.72c-0.76-0.41-1.47-0.9-2.13-1.46v-8.66v-1.22c0.74-0.13,1.45-0.33,2.13-0.6V205.15z"
				/>
			<path fill="#413D4C" d="M174.432,186.65v13.31c-0.66,0.4-1.37,0.7-2.13,0.91v-15.14v-0.99c0.11,0.03,0.22,0.06,0.32,0.09
				c0.13,0.04,0.26,0.08,0.39,0.13c0.42,0.16,0.81,0.34,1.19,0.55c0.08,0.04,0.15,0.09,0.23,0.13v1V186.65z"/>
			<path fill="#413D4C" d="M174.432,161.83v23.81c-0.08-0.04-0.15-0.09-0.23-0.13c-0.38-0.21-0.77-0.39-1.19-0.55
				c-0.12-0.05-0.26-0.09-0.39-0.13c-0.1-0.03-0.21-0.06-0.32-0.09v-23.07V97.08h2.13V161.83z"/>
			<path fill="#413D4C" d="M172.302,205.75v8.66c-0.8-0.69-1.51-1.48-2.12-2.35v-6.1v-1.22c0.73-0.01,1.44-0.08,2.12-0.21V205.75z"
				/>
			<path fill="#413D4C" d="M172.302,185.73v15.14c-0.67,0.18-1.39,0.28-2.12,0.29v-15.72v-0.99c0.13,0,0.27,0,0.4,0.01
				c0.21,0.01,0.41,0.03,0.6,0.05c0.06,0.01,0.12,0.02,0.18,0.03c0.13,0.02,0.25,0.04,0.37,0.06c0.2,0.04,0.39,0.09,0.57,0.14
				V185.73z"/>
			<path fill="#413D4C" d="M172.302,161.67v23.07c-0.18-0.05-0.37-0.1-0.57-0.14c-0.12-0.02-0.24-0.04-0.37-0.06
				c-0.06-0.01-0.12-0.02-0.18-0.03c-0.19-0.02-0.39-0.04-0.6-0.05c-0.13-0.01-0.27-0.01-0.4-0.01v-22.84V97.08h2.12V161.67z"/>
			<path fill="#413D4C" d="M170.182,205.96v6.1c-1.04-1.49-1.78-3.21-2.13-5.08v-1.19v-1.22c0.11,0.02,0.22,0.04,0.33,0.05
				c0.18,0.02,0.35,0.04,0.53,0.06c0.18,0.02,0.36,0.04,0.55,0.04c0.2,0.02,0.41,0.02,0.62,0.02c0.03,0,0.06,0,0.1,0V205.96z"/>
			<path fill="#413D4C" d="M170.182,185.44v15.72c-0.04,0-0.07,0-0.1,0c-0.7,0-1.38-0.08-2.03-0.24v-15.24v-0.99
				c0.04-0.02,0.08-0.02,0.11-0.03c0.04-0.01,0.08-0.02,0.12-0.03c0.05-0.01,0.1-0.02,0.14-0.03c0.13-0.02,0.25-0.04,0.37-0.06
				c0.06-0.01,0.11-0.02,0.16-0.02c0.22-0.03,0.43-0.05,0.65-0.06c0.16-0.01,0.32-0.02,0.48-0.02c0.03,0,0.06,0,0.1,0.01V185.44z"/>
			<path fill="#413D4C" d="M170.182,161.61v22.84c-0.04-0.01-0.07-0.01-0.1-0.01c-0.16,0-0.32,0.01-0.48,0.02
				c-0.22,0.01-0.43,0.03-0.65,0.06c-0.05,0-0.1,0.01-0.16,0.02c-0.12,0.02-0.24,0.04-0.37,0.06c-0.04,0.01-0.09,0.02-0.14,0.03
				c-0.04,0.01-0.08,0.02-0.12,0.03c-0.04,0-0.07,0.01-0.11,0.02v-23.02V97.08h2.13V161.61z"/>
			<path fill="#413D4C" d="M168.052,185.68v15.24c-0.75-0.19-1.46-0.47-2.12-0.84v-13.55v-1.01c0.39-0.21,0.79-0.4,1.21-0.56
				c0.13-0.05,0.26-0.09,0.4-0.13c0.13-0.04,0.27-0.08,0.4-0.12c0.04-0.01,0.08-0.02,0.11-0.02V185.68z"/>
			<path fill="#413D4C" d="M168.052,184.68v0.01c-0.03,0-0.07,0.01-0.11,0.02c-0.13,0.04-0.27,0.08-0.4,0.12
				c-0.14,0.04-0.27,0.08-0.4,0.13c-0.42,0.16-0.82,0.35-1.21,0.56v-23.71V97.08h2.12v64.58V184.68z"/>
			<path fill="#FFE28A" d="M165.932,201.25v2.77c-4.61-1.68-7.9-6.07-7.9-11.22c0-4.42,2.42-8.27,6.02-10.33v4.49
				c-1.49,1.5-2.41,3.56-2.41,5.84c0,3.12,1.73,5.85,4.29,7.28V201.25z"/>
			<path fill="#413D4C" d="M165.932,186.53v13.55c-2.56-1.43-4.29-4.16-4.29-7.28c0-2.28,0.92-4.34,2.41-5.84
				c0.1-0.1,0.2-0.2,0.3-0.29c0.1-0.09,0.2-0.18,0.31-0.27c0.09-0.08,0.18-0.15,0.28-0.22c0.14-0.11,0.28-0.21,0.42-0.31
				c0.19-0.12,0.37-0.24,0.57-0.35V186.53z"/>
			<path fill="#413D4C" d="M165.932,161.81v23.71c-0.2,0.11-0.38,0.23-0.57,0.35c-0.14,0.1-0.28,0.2-0.42,0.31
				c-0.1,0.06-0.19,0.14-0.28,0.22c-0.11,0.09-0.21,0.18-0.31,0.27c-0.1,0.09-0.2,0.19-0.3,0.29v-4.49V161.3V97.08h1.88V161.81z"/>
			<path fill="#413D4C" d="M162.852,89.2v3.33c-0.21,0.08-0.42,0.13-0.66,0.13c-1,0-1.8-0.81-1.8-1.8c0-0.98,0.8-1.79,1.8-1.79
				C162.432,89.07,162.642,89.12,162.852,89.2z"/>
			<path fill="#413D4C" d="M162.852,81.07v3.33c-0.21,0.07-0.42,0.12-0.66,0.12c-1,0-1.8-0.8-1.8-1.79c0-0.99,0.8-1.79,1.8-1.79
				C162.432,80.94,162.642,80.99,162.852,81.07z"/>
			<path fill="#413D4C" d="M162.852,72.93v3.33c-0.21,0.08-0.42,0.13-0.66,0.13c-1,0-1.8-0.8-1.8-1.79s0.8-1.8,1.8-1.8
				C162.432,72.8,162.642,72.85,162.852,72.93z"/>
		</g>
		<g>
			
				<path fill="none" stroke="#413D4C" stroke-width="1.4995" stroke-linecap="round" stroke-linejoin="round" stroke-miterlimit="10" d="
				M164.052,161.3c-12.61,1.74-22.05,8.84-22.05,17.33c0,4.39,3.56,15.47,3.56,22.9c0,7.43-14.03,8.67-14.03,32.65
				c0,14.92,14.94,27,38.55,27c23.6,0,38.55-12.08,38.55-27c0-22.86-12.75-25.05-13.95-31.64c-0.06-0.33-0.09-0.66-0.09-1.01
				c0-7.43,3.56-18.51,3.56-22.9c0-8.49-9.44-15.59-22.05-17.33"/>
			
				<path fill="none" stroke="#413D4C" stroke-width="1.4995" stroke-linecap="round" stroke-linejoin="round" stroke-miterlimit="10" d="
				M168.052,206.98c-0.15-0.79-0.22-1.61-0.22-2.45"/>
			
				<path fill="none" stroke="#413D4C" stroke-width="1.4995" stroke-linecap="round" stroke-linejoin="round" stroke-miterlimit="10" d="
				M174.432,230.5h7.79c0.61,0,1.11,0.5,1.11,1.13v1.32c0,0.63-0.5,1.13-1.11,1.13h-24.29c-0.61,0-1.1-0.5-1.1-1.13v-1.32
				c0-0.63,0.49-1.13,1.1-1.13h8h2.12h2.13h2.12H174.432z"/>
			<path fill="none" stroke="#413D4C" stroke-linecap="round" stroke-linejoin="round" stroke-miterlimit="10" d="M168.052,206.98
				c0.35,1.87,1.09,3.59,2.13,5.08c0.61,0.87,1.32,1.66,2.12,2.35c0.66,0.56,1.37,1.05,2.13,1.46c1.68,0.92,3.59,1.44,5.63,1.44
				c6.74,0,12.22-5.72,12.22-12.78c0-0.58-0.09-1.13-0.25-1.66c-1.14-3.72-5.69-6.3-5.69-9.3c0-3.97,3.39-4.43,3.39-7.47
				c0-5.2-3.87-9.41-8.63-9.41c-1.87,0-3.59,0.65-5,1.74"/>
			
				<path fill="none" stroke="#413D4C" stroke-width="1.4995" stroke-linecap="round" stroke-linejoin="round" stroke-miterlimit="10" d="
				M164.052,182.47c-3.6,2.06-6.02,5.91-6.02,10.33c0,5.15,3.29,9.54,7.9,11.22c0.61,0.22,1.24,0.39,1.9,0.51
				c0.07,0.02,0.15,0.03,0.22,0.04c0.11,0.02,0.22,0.04,0.33,0.05c0.18,0.02,0.35,0.04,0.53,0.06c0.18,0.02,0.36,0.04,0.55,0.04
				c0.2,0.02,0.41,0.02,0.62,0.02c0.03,0,0.06,0,0.1,0c0.73-0.01,1.44-0.08,2.12-0.21c0.74-0.13,1.45-0.33,2.13-0.6
				c4.5-1.72,7.69-6.06,7.69-11.13c0-4.42-2.42-8.27-6.02-10.33"/>
			<path fill="none" stroke="#413D4C" stroke-linecap="round" stroke-linejoin="round" stroke-miterlimit="10" d="M164.052,186.96
				c-1.49,1.5-2.41,3.56-2.41,5.84c0,3.12,1.73,5.85,4.29,7.28c0.66,0.37,1.37,0.65,2.12,0.84c0.65,0.16,1.33,0.24,2.03,0.24
				c0.03,0,0.06,0,0.1,0c0.73-0.01,1.45-0.11,2.12-0.29c0.76-0.21,1.47-0.51,2.13-0.91c2.44-1.46,4.08-4.12,4.08-7.16
				c0-2.28-0.92-4.34-2.41-5.84c-0.09-0.1-0.2-0.19-0.29-0.29"/>
			<path fill="none" stroke="#413D4C" stroke-linecap="round" stroke-linejoin="round" stroke-miterlimit="10" d="M164.942,186.18
				c-0.1,0.07-0.19,0.14-0.28,0.22"/>
			<path fill="none" stroke="#413D4C" stroke-linecap="round" stroke-linejoin="round" stroke-miterlimit="10" d="M168.162,184.66
				c-0.03,0.01-0.07,0.01-0.11,0.03"/>
			<path fill="none" stroke="#413D4C" stroke-linecap="round" stroke-linejoin="round" stroke-miterlimit="10" d="M173.012,184.96
				c-0.13-0.05-0.26-0.09-0.39-0.13"/>
			<path fill="none" stroke="#413D4C" stroke-linecap="round" stroke-linejoin="round" stroke-miterlimit="10" d="M168.052,184.68
				c0.04-0.01,0.07-0.02,0.11-0.02c0.04-0.01,0.08-0.02,0.12-0.03c0.05-0.01,0.1-0.02,0.14-0.03c0.13-0.02,0.25-0.04,0.37-0.06
				c0.06-0.01,0.11-0.02,0.16-0.02c0.22-0.03,0.43-0.05,0.65-0.06c0.16-0.01,0.32-0.02,0.48-0.02c0.03,0,0.06,0,0.1,0.01
				c0.13,0,0.27,0,0.4,0.01c0.21,0.01,0.41,0.03,0.6,0.05c0.06,0.01,0.12,0.02,0.18,0.03c0.13,0.02,0.25,0.04,0.37,0.06
				c0.2,0.04,0.39,0.09,0.57,0.14c0.11,0.03,0.22,0.06,0.32,0.09c0.13,0.04,0.27,0.08,0.39,0.13c0.42,0.16,0.81,0.34,1.19,0.55
				c0.08,0.04,0.15,0.09,0.23,0.13c0.02,0.01,0.05,0.03,0.07,0.04c0.35,0.22,0.69,0.47,1.01,0.73c0.1,0.08,0.2,0.17,0.3,0.26
				c0.1,0.09,0.2,0.19,0.29,0.29v-4.49v-4.04V161.3V97.08"/>
			<path fill="none" stroke="#413D4C" stroke-linecap="round" stroke-linejoin="round" stroke-miterlimit="10" d="M164.052,97.08
				v64.22v21.17v4.49c0.1-0.1,0.2-0.2,0.3-0.29c0.1-0.09,0.2-0.18,0.31-0.27c0.09-0.08,0.18-0.16,0.28-0.22
				c0.14-0.11,0.28-0.21,0.42-0.31c0.19-0.12,0.37-0.24,0.57-0.35c0.39-0.21,0.79-0.4,1.21-0.56c0.13-0.05,0.26-0.09,0.4-0.13
				c0.13-0.04,0.27-0.08,0.4-0.12c0.04-0.01,0.08-0.02,0.11-0.02"/>
			
				<polyline fill="none" stroke="#FFFFFF" stroke-width="1.1339" stroke-linecap="round" stroke-linejoin="round" stroke-miterlimit="10" points="
				165.932,97.08 165.932,161.81 165.932,185.52 165.932,186.53 165.932,200.08 165.932,201.25 165.932,204.02 165.932,205.23 
				165.932,230.2 165.932,230.5 165.932,232.01 			"/>
			
				<polyline fill="none" stroke="#FFFFFF" stroke-width="1.1339" stroke-linecap="round" stroke-linejoin="round" stroke-miterlimit="10" points="
				170.182,97.08 170.182,161.61 170.182,184.45 170.182,185.44 170.182,201.16 170.182,202.34 170.182,204.74 170.182,205.96 
				170.182,212.06 170.182,213.36 170.182,230.2 170.182,230.5 170.182,232.01 			"/>
			
				<polyline fill="none" stroke="#FFFFFF" stroke-width="1.1339" stroke-linecap="round" stroke-linejoin="round" stroke-miterlimit="10" points="
				168.052,97.08 168.052,161.66 168.052,184.68 168.052,184.69 168.052,185.68 168.052,200.92 168.052,202.1 168.052,204.57 
				168.052,205.79 168.052,206.98 168.052,208.23 168.052,230.2 168.052,230.5 168.052,232.01 			"/>
			
				<polyline fill="none" stroke="#FFFFFF" stroke-width="1.1339" stroke-linecap="round" stroke-linejoin="round" stroke-miterlimit="10" points="
				174.432,97.08 174.432,161.83 174.432,185.64 174.432,186.64 174.432,186.65 174.432,199.96 174.432,201.13 174.432,203.93 
				174.432,205.15 174.432,215.87 174.432,217.22 174.432,230.2 174.432,230.5 174.432,232.01 			"/>
			
				<polyline fill="none" stroke="#FFFFFF" stroke-width="1.1339" stroke-linecap="round" stroke-linejoin="round" stroke-miterlimit="10" points="
				172.302,97.08 172.302,161.67 172.302,184.74 172.302,185.73 172.302,200.87 172.302,202.04 172.302,204.53 172.302,205.75 
				172.302,214.41 172.302,215.74 172.302,230.2 172.302,230.5 172.302,232.01 			"/>
			
				<path fill="none" stroke="#FFFFFF" stroke-width="1.5" stroke-linecap="round" stroke-linejoin="round" stroke-miterlimit="10" d="
				M141.292,245.12c0.84,1.23,1.86,2.32,3.07,3.21"/>
			
				<path fill="none" stroke="#FFFFFF" stroke-width="1.5" stroke-linecap="round" stroke-linejoin="round" stroke-miterlimit="10" d="
				M142.192,217.8c-4.07,6.29-5.58,16.82-2.5,24.31"/>
			<path fill="none" stroke="#413D4C" stroke-linecap="round" stroke-linejoin="round" stroke-miterlimit="10" d="M177.312,72.93
				c0.2-0.08,0.42-0.13,0.65-0.13c1,0,1.81,0.81,1.81,1.8s-0.81,1.79-1.81,1.79c-0.23,0-0.45-0.05-0.65-0.13"/>
			<path fill="none" stroke="#413D4C" stroke-linecap="round" stroke-linejoin="round" stroke-miterlimit="10" d="M177.312,81.07
				c0.2-0.08,0.42-0.13,0.65-0.13c1,0,1.81,0.8,1.81,1.79c0,0.99-0.81,1.79-1.81,1.79c-0.23,0-0.45-0.05-0.65-0.12"/>
			<path fill="none" stroke="#413D4C" stroke-linecap="round" stroke-linejoin="round" stroke-miterlimit="10" d="M177.312,89.2
				c0.2-0.08,0.42-0.13,0.65-0.13c1,0,1.81,0.81,1.81,1.79c0,0.99-0.81,1.8-1.81,1.8c-0.23,0-0.45-0.05-0.65-0.13"/>
			
				<path fill="none" stroke="#413D4C" stroke-width="1.4995" stroke-linecap="round" stroke-linejoin="round" stroke-miterlimit="10" d="
				M162.852,72.93v-3.31c0-0.66,0.51-1.19,1.14-1.19h12.17c0.63,0,1.15,0.53,1.15,1.19v3.31v3.33v4.81v3.33v4.8v3.33v3.36
				c0,0.66-0.52,1.19-1.15,1.19h-0.06h-1.67h-2.13h-2.12h-2.13h-2.12h-1.88h-0.06c-0.63,0-1.14-0.53-1.14-1.19v-3.36V89.2v-4.8
				v-3.33v-4.81V72.93z"/>
			<path fill="none" stroke="#413D4C" stroke-linecap="round" stroke-linejoin="round" stroke-miterlimit="10" d="M162.852,89.2
				v3.33c-0.21,0.08-0.42,0.13-0.66,0.13c-1,0-1.8-0.81-1.8-1.8c0-0.98,0.8-1.79,1.8-1.79C162.432,89.07,162.642,89.12,162.852,89.2
				z"/>
			<path fill="none" stroke="#413D4C" stroke-linecap="round" stroke-linejoin="round" stroke-miterlimit="10" d="M162.852,81.07
				v3.33c-0.21,0.07-0.42,0.12-0.66,0.12c-1,0-1.8-0.8-1.8-1.79c0-0.99,0.8-1.79,1.8-1.79
				C162.432,80.94,162.642,80.99,162.852,81.07z"/>
			<path fill="none" stroke="#413D4C" stroke-linecap="round" stroke-linejoin="round" stroke-miterlimit="10" d="M162.852,72.93
				v3.33c-0.21,0.08-0.42,0.13-0.66,0.13c-1,0-1.8-0.8-1.8-1.79s0.8-1.8,1.8-1.8C162.432,72.8,162.642,72.85,162.852,72.93z"/>
		</g>
	</g>
</g>
</svg>
