<?xml version="1.0" encoding="utf-8"?>
<!-- Generator: Adobe Illustrator 17.0.0, SVG Export Plug-In . SVG Version: 6.00 Build 0)  -->
<!DOCTYPE svg PUBLIC "-//W3C//DTD SVG 1.1//EN" "http://www.w3.org/Graphics/SVG/1.1/DTD/svg11.dtd">
<svg version="1.1" id="Calque_1" xmlns="http://www.w3.org/2000/svg" xmlns:xlink="http://www.w3.org/1999/xlink" x="0px" y="0px"
	 width="340.157px" height="340.157px" viewBox="0 0 340.157 340.157" enable-background="new 0 0 340.157 340.157"
	 xml:space="preserve">
<g>
	<g>
		<g>
			<path fill="#F6F6F6" d="M252.283,193.337c0-45.501-36.804-82.388-82.205-82.388s-82.205,36.886-82.205,82.388
				c0,28.148,14.094,52.987,35.586,67.849h93.238C238.189,246.324,252.283,221.485,252.283,193.337z"/>
		</g>
		
			<line fill="none" stroke="#413D4C" stroke-width="1.5" stroke-linecap="round" stroke-miterlimit="10" x1="116.604" y1="261.186" x2="223.553" y2="261.186"/>
		
			<line fill="none" stroke="#C9A7CB" stroke-width="1.5" stroke-linecap="round" stroke-linejoin="round" stroke-miterlimit="10" x1="135.143" y1="270.908" x2="205.014" y2="270.908"/>
		<g>
			
				<line fill="none" stroke="#C9A7CB" stroke-width="1.5" stroke-linecap="round" stroke-linejoin="round" stroke-miterlimit="10" x1="156.896" y1="280.631" x2="170.937" y2="280.631"/>
			
				<line fill="none" stroke="#C9A7CB" stroke-width="1.5" stroke-linecap="round" stroke-linejoin="round" stroke-miterlimit="10" x1="179.51" y1="280.631" x2="183.262" y2="280.631"/>
		</g>
	</g>
	<g>
		<path fill="#FFE28A" d="M145.612,70.352c0.007-0.605,0.215-3.612,3.606-3.612c0.005,0,0.006,0,0.006,0c0.007,0,0.012,0,0.016,0
			h0.001h0.004h0.004h0.004c0.647-0.019,1.167-0.549,1.167-1.202c0-0.662-0.535-1.198-1.196-1.202
			c-0.605-0.007-3.612-0.215-3.612-3.606c0-0.664-0.538-1.202-1.202-1.202c-0.664,0-1.202,0.538-1.202,1.202
			c0,3.392-3.008,3.599-3.612,3.606c-0.661,0.004-1.196,0.54-1.196,1.202c0,0.664,0.538,1.202,1.202,1.202
			c3.394,0,3.599,3.01,3.606,3.606c0,0.005,0,0.006,0,0.006c0.001,0.008,0.004,0.019,0,0.017v0.004v0.004v0.005
			c0.019,0.647,0.549,1.167,1.202,1.167C145.071,71.548,145.608,71.013,145.612,70.352z"/>
		<path fill="#FFE28A" d="M206.216,123.715c0.007-0.604,0.215-3.612,3.606-3.612c0.005,0,0.006,0,0.006,0h0.017h0.001
			c0.002,0,0.004,0,0.004,0h0.003h0.005c0.647-0.019,1.167-0.549,1.167-1.202c0-0.662-0.535-1.199-1.196-1.202
			c-0.604-0.007-3.612-0.215-3.612-3.606c0-0.664-0.538-1.202-1.202-1.202s-1.202,0.538-1.202,1.202
			c0,3.391-3.008,3.599-3.612,3.606c-0.661,0.003-1.196,0.54-1.196,1.202c0,0.664,0.538,1.202,1.202,1.202
			c3.394,0,3.599,3.01,3.606,3.606c0,0.005,0,0.006,0,0.006c0.001,0.008,0.004,0.019,0,0.018v0.004v0.003c0,0,0,0.002,0,0.005
			c0.019,0.647,0.549,1.167,1.202,1.167C205.676,124.911,206.213,124.376,206.216,123.715z"/>
		<path fill="#FFE28A" d="M108.439,117.705c0.007-0.605,0.215-3.612,3.606-3.612c0.005,0,0.006,0,0.006,0c0.007,0,0.012,0,0.012,0
			h0.006h0.004h0.004h0.004c0.647-0.019,1.167-0.549,1.167-1.202c0-0.662-0.535-1.198-1.196-1.202
			c-0.605-0.007-3.612-0.215-3.612-3.606c0-0.664-0.538-1.202-1.202-1.202c-0.664,0-1.202,0.538-1.202,1.202
			c0,3.392-3.008,3.599-3.612,3.606c-0.661,0.004-1.196,0.54-1.196,1.202c0,0.664,0.538,1.202,1.202,1.202
			c3.394,0,3.599,3.01,3.606,3.606c0,0.005,0,0.006,0,0.006c0.001,0.008,0.004,0.019,0,0.017v0.004v0.004v0.005
			c0.019,0.647,0.549,1.167,1.202,1.167C107.899,118.901,108.436,118.366,108.439,117.705z"/>
		<path fill="#FFE28A" d="M205.615,200.392c0.004-0.302,0.107-1.806,1.803-1.806h0.004h0.007h0.001h0.002h0.002h0.001
			c0.325-0.01,0.585-0.275,0.585-0.601c0-0.331-0.268-0.599-0.598-0.601c-0.302-0.004-1.806-0.108-1.806-1.803
			c0-0.332-0.269-0.601-0.601-0.601s-0.601,0.269-0.601,0.601c0,1.696-1.504,1.8-1.806,1.803c-0.33,0.002-0.598,0.27-0.598,0.601
			c0,0.332,0.269,0.601,0.601,0.601c1.697,0,1.8,1.505,1.803,1.803v0.004c0.001,0.003,0.002,0.008,0.002,0.008l-0.002,0.001v0.002
			v0.002c0.009,0.323,0.275,0.584,0.601,0.584C205.345,200.99,205.613,200.723,205.615,200.392z"/>
		<path fill="#FFE28A" d="M134.254,137.355c0.004-0.302,0.107-1.806,1.803-1.806h0.004h0.007h0.001h0.002h0.002h0.001
			c0.325-0.009,0.585-0.275,0.585-0.601c0-0.331-0.268-0.599-0.598-0.601c-0.302-0.003-1.806-0.107-1.806-1.803
			c0-0.332-0.269-0.601-0.601-0.601c-0.332,0-0.601,0.269-0.601,0.601c0,1.696-1.504,1.8-1.806,1.803
			c-0.331,0.002-0.598,0.27-0.598,0.601c0,0.332,0.269,0.601,0.601,0.601c1.697,0,1.8,1.505,1.803,1.803c0,0.002,0,0.003,0,0.003
			c0.001,0.004,0.002,0.009,0.002,0.009l-0.002,0.001v0.002v0.002c0.009,0.323,0.275,0.583,0.601,0.583
			C133.984,137.954,134.252,137.686,134.254,137.355z"/>
		<path fill="#FFE28A" d="M216.104,149.499c0.004-0.302,0.107-1.806,1.803-1.806h0.004h0.007h0.001h0.002h0.002h0.001
			c0.325-0.01,0.585-0.275,0.585-0.601c0-0.331-0.268-0.599-0.598-0.601c-0.302-0.004-1.806-0.108-1.806-1.803
			c0-0.332-0.269-0.601-0.601-0.601s-0.601,0.269-0.601,0.601c0,1.696-1.504,1.8-1.806,1.803c-0.33,0.002-0.598,0.27-0.598,0.601
			c0,0.332,0.269,0.601,0.601,0.601c1.697,0,1.8,1.505,1.803,1.803c0,0.002,0,0.003,0,0.003c0.001,0.004,0.002,0.01,0.002,0.01
			l-0.002,0.001v0.001v0.002c0.009,0.323,0.275,0.584,0.601,0.584C215.834,150.098,216.102,149.83,216.104,149.499z"/>
	</g>
	<g>
		<g>
			<path fill="#FBC039" d="M215.503,259.187l-3.988,1.999l-0.018-0.037c-0.647-1.449-21.587-48.361-43.019-92.762
				c-19.929-41.28-40.503-80.293-40.825-80.962c-0.678-1.402-3.632,2.732-3.632,2.732l-2.353-4.864l3.986-2.008l3.988-1.999
				l1.998,4.131c0,0,20.961,39.801,41.183,81.705C194.484,211.994,215.503,259.187,215.503,259.187z"/>
			<g>
				
					<path fill="none" stroke="#413D4C" stroke-width="1.4995" stroke-linecap="round" stroke-linejoin="round" stroke-miterlimit="10" d="
					M211.515,261.185l3.988-1.999c0,0-21.019-47.192-42.681-92.066c-20.222-41.904-41.183-81.705-41.183-81.705l-1.998-4.131
					l-3.988,1.999l-3.986,2.008l2.353,4.864c0,0,2.954-4.134,3.632-2.732c0.322,0.669,20.896,39.682,40.825,80.962
					c21.432,44.401,42.373,91.313,43.019,92.762"/>
				
					<polyline fill="none" stroke="#413D4C" stroke-width="1.4995" stroke-linecap="round" stroke-linejoin="round" stroke-miterlimit="10" points="
					124.021,90.156 211.497,261.148 211.515,261.185 				"/>
			</g>
		</g>
		<g>
			<g>
				<path fill="#C9A7CB" d="M180.978,93.025c0-1.24,0.11-2.17,1.89-2.17c2.09,0,3.78,1.27,3.78,2.83c0,1.57-1.69,2.84-3.78,2.84
					c-1.69,0-1.87-0.84-1.89-2c0-0.27,0.01-0.55,0.01-0.84C180.988,93.465,180.978,93.245,180.978,93.025z"/>
				<path fill="#C9A7CB" d="M158.228,86.025c1.79,0,1.9,0.92,1.9,2.17h-0.01c0,0.22,0,0.44,0,0.66c0,0.35,0,0.68,0,1.01
					c-0.02,1.07-0.28,1.82-1.89,1.82c-2.09,0-3.77-1.26-3.77-2.83C154.458,87.285,156.138,86.025,158.228,86.025z"/>
				<path fill="#C9A7CB" d="M182.868,81.185c2.09,0,3.78,1.27,3.78,2.84c0,1.56-1.69,2.83-3.78,2.83c-1.69,0-1.88-0.84-1.89-2
					c0-0.27,0.01-0.54,0.01-0.83c0-0.23-0.01-0.45-0.01-0.66C180.978,82.115,181.088,81.185,182.868,81.185z"/>
				<path fill="#C9A7CB" d="M180.368,199.385c0.01,0.75,0.7,1.35,1.55,1.35s1.55-0.61,1.55-1.37c0-0.76-0.7-1.38-1.55-1.38
					s-1.53,0.6-1.55,1.35C180.368,199.345,180.368,199.365,180.368,199.385z M196.098,214.155c0-0.76-0.69-1.38-1.55-1.38
					s-1.55,0.62-1.55,1.38s0.69,1.37,1.55,1.37S196.098,214.915,196.098,214.155z M205.198,210.845c-1.88,6.64,4.82,12.13,4.82,19.8
					c0,7.58-3.58,14.5-9.52,19.84s-14.22,9.08-23.63,10.28h-0.02c-0.61,0.08-1.23,0.15-1.85,0.2l-1.17-17.55l3.12-23.35h-2.54
					l0.44-9.36c2.03-0.19,3.65-0.42,3.65-0.42l-1.55-3.91c0,0-0.81,0.16-2.03,0.33l-0.42-17.02h2.45l-1.24-47.64
					c15.6,2.04,27.48,12.48,27.48,25.07c0,3.42-3.63,7.56-3.63,10.24c0,2.68,0.94,3.88,0.94,3.88s-10.46-2.05-10.46,13.55
					C190.038,201.695,198.148,213.175,205.198,210.845z"/>
				<path fill="#413D4C" d="M194.548,212.775c0.86,0,1.55,0.62,1.55,1.38s-0.69,1.37-1.55,1.37s-1.55-0.61-1.55-1.37
					S193.688,212.775,194.548,212.775z"/>
				<path fill="#413D4C" d="M181.918,197.985c0.85,0,1.55,0.62,1.55,1.38c0,0.76-0.7,1.37-1.55,1.37s-1.54-0.6-1.55-1.35
					c0-0.02,0-0.04,0-0.05C180.388,198.585,181.068,197.985,181.918,197.985z"/>
				<path fill="#B17BB0" d="M180.978,83.365c0,0.21,0.01,0.43,0.01,0.66c0,0.29-0.01,0.56-0.01,0.83c0,0.06,0,0.11,0,0.17
					c-0.21,0.09-0.45,0.15-0.71,0.15h-5.87l-0.2-1.96h6.07C180.528,83.215,180.768,83.275,180.978,83.365z"/>
				<path fill="#B17BB0" d="M180.978,93.025c0,0.22,0.01,0.44,0.01,0.66c0,0.29-0.01,0.57-0.01,0.84c0,0.06,0,0.11,0,0.17
					c-0.21,0.09-0.45,0.15-0.71,0.15h-4.91l-0.2-1.96h5.11C180.528,92.885,180.768,92.935,180.978,93.025z"/>
				<path fill="#FFE28A" d="M176.948,206.375l1.55,3.91c0,0-1.62,0.23-3.65,0.42l0.11-2.36l-0.04-1.64
					C176.138,206.535,176.948,206.375,176.948,206.375z"/>
				<path fill="#413D4C" d="M174.408,220.065h2.54l-3.12,23.35l1.17,17.55c-0.38,0.04-0.77,0.07-1.15,0.09
					c-0.28,0.02-0.56,0.04-0.84,0.05c-0.35,0.03-0.69,0.04-1.04,0.05c-0.55,0.02-1.09,0.03-1.64,0.03c-0.55,0-1.09-0.01-1.64-0.03
					c-0.36-0.01-0.71-0.02-1.07-0.05c-0.27-0.01-0.54-0.03-0.81-0.05c-0.39-0.02-0.77-0.05-1.15-0.09l1.17-17.78l-3.11-23.12h2.51
					h4.1H174.408z"/>
				<polygon fill="#B17BB0" points="176.288,71.545 176.288,77.465 174.378,77.465 174.348,77.265 173.598,71.545 				"/>
				<path fill="#B17BB0" d="M175.718,88.055c0.76,0,1.38,0.43,1.38,0.97s-0.62,0.98-1.38,0.98h-0.84l-0.17-1.61l-0.03-0.34H175.718z
					"/>
				<polygon fill="#C9A7CB" points="166.048,99.745 164.818,99.745 165.308,94.835 165.498,92.885 165.788,90.005 165.978,88.055 
					166.258,85.175 166.268,85.175 166.458,83.215 166.758,80.175 173.898,80.175 174.198,83.215 174.398,85.175 174.678,88.055 
					174.708,88.395 175.158,92.885 175.838,99.745 174.608,99.745 				"/>
				<polygon fill="#413D4C" points="176.948,189.685 175.708,142.045 175.706,142.045 174.608,99.745 172.288,99.745 
					173.328,141.864 173.329,141.864 174.498,189.685 				"/>
				<path fill="#FFE28A" d="M174.918,206.705l0.04,1.64l-0.11,2.36c-1.45,0.14-3.11,0.27-4.52,0.28v-2.47v-1.46
					C171.998,207.045,173.678,206.865,174.918,206.705z"/>
				<path fill="#C9A7CB" d="M174.498,189.685l0.42,17.02c-1.24,0.16-2.92,0.34-4.59,0.35v-17.37H174.498z"/>
				<path fill="#C9A7CB" d="M174.848,210.705l-0.44,9.36h-4.08v-9.08C171.738,210.975,173.398,210.845,174.848,210.705z"/>
				<polygon fill="#B17BB0" points="174.378,77.465 174.738,80.175 173.898,80.175 166.758,80.175 165.918,80.175 166.278,77.465 
					166.308,77.265 167.478,68.425 173.178,68.425 174.348,77.265 				"/>
				<polygon fill="#413D4C" points="173.328,141.805 173.327,141.805 172.288,99.745 170.328,99.745 170.328,141.685 
					170.328,141.744 170.328,189.685 174.498,189.685 				"/>
				<path fill="#C9A7CB" d="M170.328,210.985v9.08h-4.1l-0.48-9.35c1.4,0.15,3,0.27,4.35,0.27
					C170.168,210.985,170.248,210.985,170.328,210.985z"/>
				<path fill="#FFE28A" d="M170.328,208.515v2.47c-0.08,0-0.16,0-0.23,0c-1.35,0-2.95-0.12-4.35-0.27l-0.12-2.29l0.05-1.7
					c1.18,0.17,2.73,0.34,4.32,0.34c0.11,0,0.22,0,0.33-0.01V208.515z"/>
				<path fill="#C9A7CB" d="M170.328,189.685v17.37c-0.11,0.01-0.22,0.01-0.33,0.01c-1.59,0-3.14-0.17-4.32-0.34l0.46-17.04H170.328
					z"/>
				<polygon fill="#413D4C" points="166.048,99.745 164.949,142.045 164.948,142.045 163.718,189.685 166.138,189.685 
					167.456,141.864 167.457,141.864 168.618,99.745 				"/>
				<polygon fill="#413D4C" points="168.618,99.745 167.46,141.805 167.458,141.805 166.138,189.685 170.328,189.685 
					170.328,141.744 170.328,141.685 170.328,99.745 				"/>
				<polygon fill="#B17BB0" points="167.058,71.545 166.308,77.265 166.278,77.465 164.368,77.465 164.368,71.545 				"/>
				<path fill="#C9A7CB" d="M144.558,214.155c0,0.76,0.7,1.37,1.55,1.37c0.86,0,1.55-0.61,1.55-1.37s-0.69-1.38-1.55-1.38
					C145.258,212.775,144.558,213.395,144.558,214.155z M160.298,199.385c0-0.02,0-0.04,0-0.05c-0.02-0.75-0.71-1.35-1.56-1.35
					c-0.85,0-1.55,0.62-1.55,1.38c0,0.76,0.7,1.37,1.55,1.37C159.588,200.735,160.288,200.135,160.298,199.385z M163.718,220.065
					l3.11,23.12l-1.17,17.78c-0.62-0.05-1.23-0.12-1.84-0.2h-0.03c-18.8-2.4-33.14-14.97-33.14-30.12c0-7.67,6.69-13.16,4.82-19.8
					c7.04,2.33,15.15-9.15,15.15-16.06c0-15.6-10.46-13.55-10.46-13.55s0.94-1.2,0.94-3.88c0-2.68-3.63-6.82-3.63-10.24
					c0-12.59,11.88-23.03,27.48-25.07l-1.23,47.64h2.42l-0.46,17.04c-1.18-0.18-1.96-0.35-1.96-0.35l-1.56,3.91
					c0,0,1.61,0.24,3.59,0.43l0.48,9.35H163.718z"/>
				<path fill="#B17BB0" d="M166.458,83.215l-0.2,1.96h-0.88c-0.76,0-1.38-0.44-1.38-0.98s0.62-0.98,1.38-0.98H166.458z"/>
				<path fill="#B17BB0" d="M165.978,88.055l-0.19,1.95h-4.96c-0.26,0-0.5-0.05-0.71-0.14c0.01-0.31,0-0.65,0-1.01
					c0-0.23,0.01-0.45,0.01-0.66c0.21-0.09,0.44-0.14,0.7-0.14H165.978z"/>
				<path fill="#FFE28A" d="M165.628,208.425l0.12,2.29c-1.98-0.19-3.59-0.43-3.59-0.43l1.56-3.91c0,0,0.78,0.17,1.96,0.35
					L165.628,208.425z"/>
				<path fill="#B17BB0" d="M165.498,92.885l-0.19,1.95c-0.73-0.03-1.31-0.45-1.31-0.97c0-0.54,0.62-0.98,1.38-0.98H165.498z"/>
				<path fill="#413D4C" d="M160.298,199.335c0,0.01,0,0.03,0,0.05c-0.01,0.75-0.71,1.35-1.56,1.35c-0.85,0-1.55-0.61-1.55-1.37
					c0-0.76,0.7-1.38,1.55-1.38C159.588,197.985,160.278,198.585,160.298,199.335z"/>
				<g>
					
						<path fill="none" stroke="#FFFFFF" stroke-width="1.5" stroke-linecap="round" stroke-linejoin="round" stroke-miterlimit="10" d="
						M201.197,239.056c0.526-1.054,0.976-2.163,1.341-3.33"/>
					
						<path fill="none" stroke="#FFFFFF" stroke-width="1.5" stroke-linecap="round" stroke-linejoin="round" stroke-miterlimit="10" d="
						M186.038,252.475c5.311-2.478,10.12-5.834,13.363-10.422"/>
				</g>
				<path fill="#413D4C" d="M146.108,212.775c0.86,0,1.55,0.62,1.55,1.38s-0.69,1.37-1.55,1.37c-0.85,0-1.55-0.61-1.55-1.37
					S145.258,212.775,146.108,212.775z"/>
			</g>
			<g>
				
					<polyline fill="none" stroke="#413D4C" stroke-width="1.4995" stroke-linecap="round" stroke-linejoin="round" stroke-miterlimit="10" points="
					174.378,77.465 176.288,77.465 176.288,71.545 173.598,71.545 174.348,77.265 				"/>
				
					<polyline fill="none" stroke="#413D4C" stroke-width="1.4995" stroke-linecap="round" stroke-linejoin="round" stroke-miterlimit="10" points="
					166.308,77.265 167.058,71.545 164.368,71.545 164.368,77.465 166.278,77.465 				"/>
				
					<polyline fill="none" stroke="#413D4C" stroke-width="1.4995" stroke-linecap="round" stroke-linejoin="round" stroke-miterlimit="10" points="
					166.758,80.175 165.918,80.175 166.278,77.465 166.308,77.265 167.478,68.425 173.178,68.425 174.348,77.265 174.378,77.465 
					174.738,80.175 173.898,80.175 				"/>
				
					<path fill="none" stroke="#413D4C" stroke-width="1.4995" stroke-linecap="round" stroke-linejoin="round" stroke-miterlimit="10" d="
					M174.398,85.175h5.87c0.26,0,0.5-0.06,0.71-0.15c0-0.06,0-0.11,0-0.17"/>
				
					<path fill="none" stroke="#413D4C" stroke-width="1.4995" stroke-linecap="round" stroke-linejoin="round" stroke-miterlimit="10" d="
					M180.978,83.365c-0.21-0.09-0.45-0.15-0.71-0.15h-6.07"/>
				
					<path fill="none" stroke="#413D4C" stroke-width="1.4995" stroke-linecap="round" stroke-linejoin="round" stroke-miterlimit="10" d="
					M166.458,83.215h-1.08c-0.76,0-1.38,0.44-1.38,0.98s0.62,0.98,1.38,0.98h0.88h0.01L166.458,83.215z"/>
				
					<path fill="none" stroke="#413D4C" stroke-width="1.4995" stroke-linecap="round" stroke-linejoin="round" stroke-miterlimit="10" d="
					M180.978,83.365c0-1.25,0.11-2.18,1.89-2.18c2.09,0,3.78,1.27,3.78,2.84c0,1.56-1.69,2.83-3.78,2.83c-1.69,0-1.88-0.84-1.89-2
					c0-0.27,0.01-0.54,0.01-0.83C180.988,83.795,180.978,83.575,180.978,83.365z"/>
				
					<path fill="none" stroke="#413D4C" stroke-width="1.4995" stroke-linecap="round" stroke-linejoin="round" stroke-miterlimit="10" d="
					M180.978,93.025c0-1.24,0.11-2.17,1.89-2.17c2.09,0,3.78,1.27,3.78,2.83c0,1.57-1.69,2.84-3.78,2.84c-1.69,0-1.87-0.84-1.89-2"
					/>
				
					<path fill="none" stroke="#413D4C" stroke-width="1.4995" stroke-linecap="round" stroke-linejoin="round" stroke-miterlimit="10" d="
					M160.128,88.195c0-1.25-0.11-2.17-1.9-2.17c-2.09,0-3.77,1.26-3.77,2.83c0,1.57,1.68,2.83,3.77,2.83c1.61,0,1.87-0.75,1.89-1.82
					c0.01-0.31,0-0.65,0-1.01C160.118,88.625,160.128,88.405,160.128,88.195z"/>
				
					<path fill="none" stroke="#413D4C" stroke-width="1.4995" stroke-linecap="round" stroke-linejoin="round" stroke-miterlimit="10" d="
					M165.978,88.055h-5.15c-0.26,0-0.49,0.05-0.7,0.14h-0.01c0,0.22,0,0.44,0,0.66c0,0.35,0,0.68,0,1.01
					c0.21,0.09,0.45,0.14,0.71,0.14h4.96"/>
				
					<path fill="none" stroke="#413D4C" stroke-width="1.4995" stroke-linecap="round" stroke-linejoin="round" stroke-miterlimit="10" d="
					M174.708,88.395l0.17,1.61h0.84c0.76,0,1.38-0.44,1.38-0.98s-0.62-0.97-1.38-0.97h-1.04"/>
				
					<path fill="none" stroke="#413D4C" stroke-width="1.4995" stroke-linecap="round" stroke-linejoin="round" stroke-miterlimit="10" d="
					M165.498,92.885h-0.12c-0.76,0-1.38,0.44-1.38,0.98c0,0.52,0.58,0.94,1.31,0.97"/>
				
					<path fill="none" stroke="#413D4C" stroke-width="1.4995" stroke-linecap="round" stroke-linejoin="round" stroke-miterlimit="10" d="
					M180.978,93.025c-0.21-0.09-0.45-0.14-0.71-0.14h-5.11l0.2,1.96h4.91c0.26,0,0.5-0.06,0.71-0.15c0-0.06,0-0.11,0-0.17
					c0-0.27,0.01-0.55,0.01-0.84C180.988,93.465,180.978,93.245,180.978,93.025z"/>
				
					<polygon fill="none" stroke="#413D4C" stroke-width="1.4995" stroke-linecap="round" stroke-linejoin="round" stroke-miterlimit="10" points="
					175.158,92.885 175.838,99.745 174.608,99.745 172.288,99.745 170.328,99.745 168.618,99.745 166.048,99.745 164.818,99.745 
					165.308,94.835 165.498,92.885 165.788,90.005 165.978,88.055 166.258,85.175 166.458,83.215 166.758,80.175 173.898,80.175 
					174.198,83.215 174.398,85.175 174.678,88.055 174.708,88.395 				"/>
				
					<path fill="none" stroke="#413D4C" stroke-width="1.4995" stroke-linecap="round" stroke-linejoin="round" stroke-miterlimit="10" d="
					M174.918,206.705c1.22-0.17,2.03-0.33,2.03-0.33l1.55,3.91c0,0-1.62,0.23-3.65,0.42c-1.45,0.14-3.11,0.27-4.52,0.28
					c-0.08,0-0.16,0-0.23,0c-1.35,0-2.95-0.12-4.35-0.27c-1.98-0.19-3.59-0.43-3.59-0.43l1.56-3.91c0,0,0.78,0.17,1.96,0.35
					c1.18,0.17,2.73,0.34,4.32,0.34c0.11,0,0.22,0,0.33-0.01C171.998,207.045,173.678,206.865,174.918,206.705z"/>
				
					<polyline fill="none" stroke="#FFFFFF" stroke-width="1.1339" stroke-linecap="round" stroke-linejoin="round" stroke-miterlimit="10" points="
					170.328,99.745 170.328,99.835 170.328,141.745 170.328,189.71 170.328,207.068 170.328,208.527 170.328,210.995 
					170.328,220.068 170.328,224.255 				"/>
				
					<polyline fill="none" stroke="#FFFFFF" stroke-width="1.1339" stroke-linecap="round" stroke-linejoin="round" stroke-miterlimit="10" points="
					168.618,99.745 168.618,99.835 167.458,141.865 166.138,189.71 165.678,206.738 165.628,208.437 165.748,210.725 
					166.228,220.068 166.438,224.255 				"/>
				
					<polyline fill="none" stroke="#FFFFFF" stroke-width="1.1339" stroke-linecap="round" stroke-linejoin="round" stroke-miterlimit="10" points="
					172.288,99.745 172.288,99.835 173.328,141.865 174.498,189.71 174.918,206.718 174.958,208.357 174.848,210.715 
					174.408,220.068 174.218,224.255 				"/>
				
					<polyline fill="none" stroke="#413D4C" stroke-width="1.4995" stroke-linecap="round" stroke-linejoin="round" stroke-miterlimit="10" points="
					174.998,260.965 173.828,243.415 176.948,220.065 174.408,220.065 170.328,220.065 166.228,220.065 163.718,220.065 
					166.828,243.185 165.658,260.965 				"/>
				
					<path fill="none" stroke="#413D4C" stroke-width="1.4995" stroke-linecap="round" stroke-linejoin="round" stroke-miterlimit="10" d="
					M173.008,261.105c0.28-0.01,0.56-0.03,0.84-0.05"/>
				
					<path fill="none" stroke="#413D4C" stroke-width="1.4995" stroke-linecap="round" stroke-linejoin="round" stroke-miterlimit="10" d="
					M168.688,261.155c0.54,0.02,1.09,0.03,1.64,0.03c0.55,0,1.1-0.01,1.64-0.03"/>
				
					<path fill="none" stroke="#413D4C" stroke-width="1.4995" stroke-linecap="round" stroke-linejoin="round" stroke-miterlimit="10" d="
					M166.808,261.055c0.27,0.02,0.54,0.04,0.81,0.05"/>
				
					<path fill="none" stroke="#413D4C" stroke-width="1.4995" stroke-linecap="round" stroke-linejoin="round" stroke-miterlimit="10" d="
					M174.998,260.965c0.62-0.05,1.24-0.12,1.85-0.2h0.02c9.41-1.2,17.69-4.94,23.63-10.28s9.52-12.26,9.52-19.84
					c0-7.67-6.7-13.16-4.82-19.8c-7.05,2.33-15.16-9.15-15.16-16.06c0-15.6,10.46-13.55,10.46-13.55s-0.94-1.2-0.94-3.88
					c0-2.68,3.63-6.82,3.63-10.24c0-12.59-11.88-23.03-27.48-25.07c-0.78-0.1-1.58-0.18-2.38-0.24c-0.92-0.07-1.86-0.11-2.81-0.12
					c0,0,0,0,0-0.01c-0.06,0-0.13,0.01-0.19,0.01s-0.12-0.01-0.19-0.01c0,0.01,0,0.01,0,0.01c-0.9,0.01-1.8,0.04-2.68,0.12
					c-0.85,0.05-1.69,0.13-2.51,0.24c-15.6,2.04-27.48,12.48-27.48,25.07c0,3.42,3.63,7.56,3.63,10.24c0,2.68-0.94,3.88-0.94,3.88
					s10.46-2.05,10.46,13.55c0,6.91-8.11,18.39-15.15,16.06c1.87,6.64-4.82,12.13-4.82,19.8c0,15.15,14.34,27.72,33.14,30.12h0.03
					c0.61,0.08,1.22,0.15,1.84,0.2c0.38,0.04,0.76,0.07,1.15,0.09c0.27,0.02,0.54,0.04,0.81,0.05c0.36,0.03,0.71,0.04,1.07,0.05
					c0.55,0.02,1.09,0.03,1.64,0.03c0.55,0,1.09-0.01,1.64-0.03c0.35-0.01,0.69-0.02,1.04-0.05c0.28-0.01,0.56-0.02,0.84-0.05
					C174.228,261.035,174.618,261.005,174.998,260.965z"/>
				
					<path fill="none" stroke="#413D4C" stroke-width="1.4995" stroke-linecap="round" stroke-linejoin="round" stroke-miterlimit="10" d="
					M160.298,199.385c-0.01,0.75-0.71,1.35-1.56,1.35c-0.85,0-1.55-0.61-1.55-1.37c0-0.76,0.7-1.38,1.55-1.38
					c0.85,0,1.54,0.6,1.56,1.35"/>
				
					<path fill="none" stroke="#413D4C" stroke-width="1.4995" stroke-linecap="round" stroke-linejoin="round" stroke-miterlimit="10" d="
					M160.298,199.455c0-0.02,0-0.05,0-0.07c0-0.02,0-0.04,0-0.05c-0.04-1.8-0.96-3.22-2.99-3.22c-2.07,0-3.75,1.49-3.75,3.34
					l-2.26,14.62c0,1.84-1.68,3.34-3.76,3.34c-2.07,0-2.98-1.42-2.98-3.26"/>
				
					<path fill="none" stroke="#413D4C" stroke-width="1.4995" stroke-linecap="round" stroke-linejoin="round" stroke-miterlimit="10" d="
					M147.658,214.155c0,0.76-0.69,1.37-1.55,1.37c-0.85,0-1.55-0.61-1.55-1.37s0.7-1.38,1.55-1.38
					C146.968,212.775,147.658,213.395,147.658,214.155z"/>
				
					<path fill="none" stroke="#413D4C" stroke-width="1.4995" stroke-linecap="round" stroke-linejoin="round" stroke-miterlimit="10" d="
					M180.368,199.385c0.01,0.75,0.7,1.35,1.55,1.35s1.55-0.61,1.55-1.37c0-0.76-0.7-1.38-1.55-1.38s-1.53,0.6-1.55,1.35"/>
				
					<path fill="none" stroke="#413D4C" stroke-width="1.4995" stroke-linecap="round" stroke-linejoin="round" stroke-miterlimit="10" d="
					M180.368,199.455c0-0.02,0-0.05,0-0.07c0-0.02,0-0.04,0-0.05c0.04-1.8,0.95-3.22,2.98-3.22c2.07,0,3.76,1.49,3.76,3.34
					l2.25,14.62c0,1.84,1.68,3.34,3.76,3.34s2.98-1.42,2.98-3.26"/>
				
					<path fill="none" stroke="#413D4C" stroke-width="1.4995" stroke-linecap="round" stroke-linejoin="round" stroke-miterlimit="10" d="
					M192.998,214.155c0,0.76,0.69,1.37,1.55,1.37s1.55-0.61,1.55-1.37s-0.69-1.38-1.55-1.38S192.998,213.395,192.998,214.155z"/>
				
					<polygon fill="none" stroke="#413D4C" stroke-width="1.4995" stroke-linecap="round" stroke-linejoin="round" stroke-miterlimit="10" points="
					175.708,142.105 176.948,189.71 174.498,189.71 170.328,189.71 166.138,189.71 163.718,189.71 164.948,142.105 166.048,99.835 
					166.048,99.745 168.618,99.745 170.328,99.745 172.288,99.745 174.608,99.745 174.608,99.835 				"/>
			</g>
		</g>
	</g>
</g>
</svg>
