<?xml version="1.0" encoding="utf-8"?>
<!-- Generator: Adobe Illustrator 17.0.0, SVG Export Plug-In . SVG Version: 6.00 Build 0)  -->
<!DOCTYPE svg PUBLIC "-//W3C//DTD SVG 1.1//EN" "http://www.w3.org/Graphics/SVG/1.1/DTD/svg11.dtd">
<svg version="1.1" id="Calque_1" xmlns="http://www.w3.org/2000/svg"  x="0px" y="0px"
	 width="340.157px" height="340.157px" viewBox="0 0 340.157 340.157" enable-background="new 0 0 340.157 340.157"
	 xml:space="preserve">
<g>
	<g>
		<g>
			<path fill="#F6F6F6" d="M248.208,187.975c0-48.296-39.065-87.448-87.253-87.448s-87.253,39.152-87.253,87.448
				c0,29.877,14.96,56.242,37.772,72.016h98.964C233.248,244.216,248.208,217.852,248.208,187.975z"/>
		</g>
		
			<line fill="none" stroke="#413D4C" stroke-width="1.5" stroke-linecap="round" stroke-miterlimit="10" x1="104.195" y1="259.99" x2="217.713" y2="259.99"/>
		
			<line fill="none" stroke="#C9A7CB" stroke-width="1.5" stroke-linecap="round" stroke-linejoin="round" stroke-miterlimit="10" x1="123.873" y1="270.31" x2="198.035" y2="270.31"/>
		<g>
			
				<line fill="none" stroke="#C9A7CB" stroke-width="1.5" stroke-linecap="round" stroke-linejoin="round" stroke-miterlimit="10" x1="146.962" y1="280.63" x2="161.866" y2="280.63"/>
			
				<line fill="none" stroke="#C9A7CB" stroke-width="1.5" stroke-linecap="round" stroke-linejoin="round" stroke-miterlimit="10" x1="170.964" y1="280.63" x2="174.947" y2="280.63"/>
		</g>
	</g>
	<g>
		<path fill="#FFE28A" d="M110.029,89.131c0.007-0.642,0.228-3.834,3.828-3.834c0.005,0,0.006,0,0.006,0c0.007,0,0.012,0,0.017,0
			h0.001h0.004h0.004h0.005c0.687-0.02,1.239-0.583,1.239-1.276c0-0.703-0.568-1.272-1.27-1.276
			c-0.642-0.007-3.834-0.228-3.834-3.828c0-0.705-0.571-1.276-1.276-1.276c-0.705,0-1.276,0.571-1.276,1.276
			c0,3.6-3.192,3.82-3.834,3.828c-0.701,0.004-1.27,0.573-1.27,1.276c0,0.705,0.571,1.276,1.276,1.276
			c3.602,0,3.82,3.195,3.828,3.828c0,0.005,0,0.006,0,0.006c0.001,0.009,0.004,0.02,0,0.019v0.004v0.004v0.005
			c0.02,0.686,0.583,1.238,1.276,1.238C109.456,90.401,110.025,89.833,110.029,89.131z"/>
		<path fill="#FFE28A" d="M261.353,188.772c0.007-0.641,0.228-3.834,3.828-3.834c0.005,0,0.006,0,0.006,0h0.018h0.001
			c0.003,0,0.004,0,0.004,0h0.004h0.005c0.686-0.02,1.239-0.583,1.239-1.276c0-0.703-0.568-1.272-1.27-1.276
			c-0.641-0.008-3.834-0.228-3.834-3.828c0-0.705-0.571-1.276-1.276-1.276c-0.705,0-1.276,0.571-1.276,1.276
			c0,3.6-3.192,3.82-3.834,3.828c-0.701,0.004-1.27,0.573-1.27,1.276c0,0.705,0.571,1.276,1.276,1.276
			c3.602,0,3.82,3.195,3.828,3.828c0,0.005,0,0.006,0,0.006c0.001,0.009,0.004,0.02,0,0.019v0.004v0.004c0,0,0,0.003,0,0.005
			c0.02,0.686,0.583,1.239,1.276,1.239C260.78,190.042,261.349,189.473,261.353,188.772z"/>
		<path fill="#FFE28A" d="M260.783,89.131c0.007-0.642,0.228-3.834,3.828-3.834c0.005,0,0.006,0,0.006,0c0.007,0,0.012,0,0.012,0
			h0.006h0.004h0.004h0.005c0.687-0.02,1.239-0.583,1.239-1.276c0-0.703-0.568-1.272-1.27-1.276
			c-0.642-0.007-3.834-0.228-3.834-3.828c0-0.705-0.571-1.276-1.276-1.276s-1.276,0.571-1.276,1.276c0,3.6-3.192,3.82-3.834,3.828
			c-0.701,0.004-1.27,0.573-1.27,1.276c0,0.705,0.571,1.276,1.276,1.276c3.602,0,3.82,3.195,3.828,3.828c0,0.005,0,0.006,0,0.006
			c0.001,0.009,0.004,0.02,0,0.019v0.004v0.004v0.005c0.02,0.686,0.583,1.238,1.276,1.238
			C260.21,90.401,260.779,89.833,260.783,89.131z"/>
		<path fill="#FFE28A" d="M233.955,201.12c0.004-0.321,0.114-1.917,1.914-1.917h0.004h0.007h0.001h0.002h0.002h0.001
			c0.344-0.01,0.62-0.292,0.62-0.638c0-0.352-0.284-0.636-0.635-0.638c-0.321-0.004-1.917-0.114-1.917-1.914
			c0-0.353-0.285-0.638-0.638-0.638c-0.352,0-0.638,0.285-0.638,0.638c0,1.8-1.596,1.91-1.917,1.914
			c-0.351,0.002-0.635,0.286-0.635,0.638c0,0.352,0.285,0.638,0.638,0.638c1.801,0,1.91,1.597,1.914,1.914v0.004
			c0.001,0.003,0.002,0.009,0.002,0.009l-0.002,0.001v0.002v0.003c0.01,0.343,0.292,0.619,0.638,0.619
			C233.669,201.755,233.953,201.47,233.955,201.12z"/>
		<path fill="#FFE28A" d="M130.226,123.783c0.004-0.321,0.114-1.917,1.914-1.917h0.004h0.007h0.001h0.002h0.002h0.001
			c0.344-0.01,0.62-0.292,0.62-0.638c0-0.351-0.284-0.636-0.635-0.638c-0.321-0.004-1.917-0.114-1.917-1.914
			c0-0.352-0.285-0.638-0.638-0.638c-0.353,0-0.638,0.285-0.638,0.638c0,1.8-1.596,1.91-1.917,1.914
			c-0.351,0.002-0.635,0.287-0.635,0.638c0,0.353,0.285,0.638,0.638,0.638c1.801,0,1.91,1.597,1.914,1.914c0,0.003,0,0.003,0,0.003
			c0.001,0.004,0.002,0.01,0.002,0.01l-0.002,0.001v0.002v0.003c0.01,0.343,0.292,0.619,0.638,0.619
			C129.94,124.417,130.224,124.134,130.226,123.783z"/>
		<path fill="#FFE28A" d="M230.765,99.151c0.004-0.321,0.114-1.917,1.914-1.917h0.004h0.007h0.001h0.002h0.002h0.001
			c0.344-0.01,0.62-0.292,0.62-0.638c0-0.352-0.284-0.636-0.635-0.638c-0.321-0.004-1.917-0.114-1.917-1.914
			c0-0.353-0.285-0.638-0.638-0.638s-0.638,0.285-0.638,0.638c0,1.8-1.596,1.91-1.917,1.914c-0.351,0.002-0.635,0.286-0.635,0.638
			c0,0.352,0.285,0.638,0.638,0.638c1.801,0,1.91,1.597,1.914,1.914c0,0.003,0,0.003,0,0.003c0.001,0.004,0.002,0.01,0.002,0.01
			l-0.002,0.001v0.002v0.003c0.01,0.343,0.292,0.619,0.638,0.619C230.479,99.786,230.763,99.502,230.765,99.151z"/>
	</g>
	<g id="XMLID_2_">
		<g>
			<path fill="#B17BB0" d="M188.082,256.934l2.65,3.128h-9.305c-0.047-0.232-0.105-0.475-0.198-0.73
				c-0.07-0.243-0.152-0.508-0.269-0.774c-0.198-0.531-0.444-1.072-0.747-1.625H188.082z"/>
			<path fill="#B17BB0" d="M176.675,260.062h-6.924c-0.047-0.232-0.105-0.475-0.198-0.73c-0.07-0.243-0.152-0.508-0.269-0.774
				c-0.198-0.531-0.444-1.072-0.747-1.625h5.511h0.794c0.234,0.553,0.525,1.127,0.876,1.702c0.152,0.254,0.315,0.508,0.479,0.741
				C176.348,259.62,176.512,259.841,176.675,260.062z"/>
			<path fill="#FBC039" d="M175.823,252.269c0.817,0.287,1.821,1.105,2.767,2.266c0.082,0.099,0.175,0.21,0.257,0.321
				s0.163,0.221,0.257,0.332c0.28,0.376,0.549,0.785,0.806,1.216c0.105,0.177,0.21,0.354,0.292,0.531
				c0.304,0.564,0.56,1.105,0.759,1.625c0.105,0.265,0.198,0.531,0.269,0.774c0.082,0.254,0.14,0.497,0.198,0.73
				c0.304,1.349,0.163,2.377-0.479,2.719c-0.957,0.508-2.72-0.663-4.273-2.719h0.012c-0.163-0.221-0.327-0.442-0.49-0.685
				c-0.163-0.232-0.327-0.486-0.479-0.741c-0.339-0.575-0.619-1.15-0.864-1.702c-0.07-0.155-0.128-0.298-0.187-0.442
				c-0.128-0.298-0.222-0.586-0.292-0.862c-0.315-1.039-0.397-1.923-0.245-2.553c0.012-0.088,0.047-0.177,0.082-0.254
				c0.047-0.133,0.117-0.243,0.198-0.332c0.082-0.099,0.175-0.177,0.28-0.232c0.07-0.044,0.152-0.066,0.234-0.088
				c0.14-0.033,0.304-0.033,0.467-0.011C175.531,252.181,175.671,252.214,175.823,252.269z"/>
			<path fill="#FBC039" d="M162.536,252.822c0.047-0.133,0.117-0.243,0.198-0.332c0.082-0.099,0.175-0.177,0.28-0.232
				c0.07-0.044,0.152-0.066,0.234-0.088c0.14-0.033,0.304-0.033,0.467-0.011c0.14,0.022,0.28,0.055,0.432,0.111
				c0.817,0.287,1.821,1.105,2.767,2.266c0.082,0.099,0.175,0.21,0.257,0.321s0.163,0.221,0.257,0.332
				c0.28,0.376,0.549,0.785,0.806,1.216c0.105,0.177,0.21,0.354,0.292,0.531c0.304,0.564,0.56,1.105,0.759,1.625
				c0.105,0.265,0.198,0.531,0.269,0.774c0.082,0.254,0.14,0.497,0.198,0.73c0.304,1.349,0.163,2.377-0.479,2.719
				c-0.957,0.508-2.72-0.663-4.273-2.719h0.012c-0.163-0.221-0.327-0.442-0.49-0.685c-0.163-0.232-0.327-0.486-0.479-0.741
				c-0.339-0.575-0.619-1.15-0.864-1.702c-0.07-0.155-0.128-0.298-0.187-0.442c-0.128-0.298-0.222-0.586-0.292-0.862
				c-0.315-1.039-0.397-1.923-0.245-2.553C162.466,252.987,162.501,252.899,162.536,252.822z"/>
			<path fill="#FFE28A" d="M246.938,114.696c1.506,1.525,1.985,3.062,1.646,4.897l-7.986,10.435v-15.895v-0.011
				C243.295,113.325,245.56,113.303,246.938,114.696z"/>
			<path fill="#FFE28A" d="M235.987,135.974c1.926-3.626,2.137-6.079-0.257-8.511c-0.782-0.785-1.67-1.127-2.639-1.116v-8.909
				c2.604-1.404,5.207-2.642,7.507-3.305v15.895l-4.565,5.98L235.987,135.974z"/>
			<path fill="#FFE28A" d="M233.091,117.437v8.909c-2.207,0.011-4.822,1.78-7.496,3.913v-8.544
				C227.895,120.389,230.499,118.83,233.091,117.437z"/>
			<path fill="#FFE28A" d="M225.595,121.715v8.544c-2.545,2.034-5.161,4.399-7.507,5.892v-10.998
				c0.63-0.166,1.273-0.365,1.926-0.597C221.427,124.058,223.377,122.986,225.595,121.715z"/>
			<path fill="#FFE28A" d="M218.088,125.153v10.998c-0.794,0.508-1.553,0.917-2.277,1.172c-1.798,0.641-3.549,1.061-5.219,1.083
				v-13.695C212.881,125.893,215.414,125.86,218.088,125.153z"/>
			<path fill="#FFE28A" d="M210.592,124.711v13.695c-2.767,0.055-5.301-0.973-7.507-3.813v-22.019
				c0.093,0.254,0.163,0.508,0.245,0.774c1.926,6.455,4.413,9.871,7.262,11.352V124.711z"/>
			<path fill="#FFE28A" d="M203.085,112.574v22.019c-1.494-1.923-2.814-4.665-3.958-8.478c-1.062-3.526-2.242-6.842-3.538-9.937
				V94.733h0.012C198.508,99.884,201.019,105.82,203.085,112.574z"/>
			<path fill="#FFE28A" d="M195.601,94.733h-0.012v21.444c-2.195-5.228-4.705-9.849-7.507-13.861V84.078l0.012-0.011
				C190.814,87.139,193.325,90.688,195.601,94.733z"/>
			<path fill="#FFE28A" d="M188.094,84.067l-0.012,0.011v18.238c-2.312-3.316-4.822-6.223-7.496-8.721V77.169
				C183.225,79.115,185.736,81.414,188.094,84.067z"/>
			<path fill="#FFE28A" d="M180.587,77.169v16.426c-2.382-2.233-4.892-4.134-7.507-5.715V72.748
				C175.683,73.919,178.193,75.401,180.587,77.169z"/>
			<path fill="#FFE28A" d="M173.079,72.748V87.88c-2.405-1.47-4.915-2.664-7.507-3.581V70.172
				C168.152,70.769,170.651,71.631,173.079,72.748z"/>
			<path fill="#FFE28A" d="M165.572,70.172v14.126c-2.428-0.895-4.927-1.536-7.496-1.945V69.089
				C160.633,69.222,163.132,69.575,165.572,70.172z"/>
			<path fill="#FFE28A" d="M158.076,69.078v0.011v13.264c-2.253-0.376-4.553-0.564-6.889-0.586c0.047-0.586,0.117-1.172,0.21-1.746
				c0.047-0.365,0.117-0.718,0.187-1.083c0.117-0.652,0.257-1.293,0.409-1.923c0.093-0.387,0.198-0.774,0.304-1.15
				c0.012-0.033,0.023-0.066,0.035-0.111c0.105-0.365,0.21-0.718,0.327-1.072c0.082-0.243,0.163-0.497,0.257-0.741
				c0.093-0.265,0.187-0.531,0.292-0.796c0.234-0.641,0.502-1.282,0.794-1.901c0.117-0.298,0.257-0.586,0.409-0.884
				c0.093-0.21,0.198-0.409,0.304-0.619c0.082-0.155,0.163-0.321,0.257-0.475c0.07-0.144,0.14-0.276,0.222-0.42l0.514,0.155
				C156.5,69.001,157.294,69.034,158.076,69.078z"/>
			<path fill="#FFE28A" d="M240.283,133.863c-7.904,11.861-59.93,84.648-77.735,109.53h-8.687l4.215-5.516l7.507-9.805l7.554-9.871
				l7.449-9.738l7.496-9.805l7.507-9.805l7.496-9.805l7.507-9.805l7.496-9.805l7.507-9.805l7.496-9.805l2.942-3.825l4.565-5.98
				l7.986-10.435C247.989,122.876,244.79,127.098,240.283,133.863z"/>
			<path fill="#C9A7CB" d="M161.392,62.7v-1.481c20.992,0.133,38.739,13.994,47.741,44.026c3.853,12.855,5.756,12.502,12.574,10.07
				c6.083-2.155,17.385-11.938,28.943-8.953c5.242,1.36,8.616,5.869,6.527,13.231h-8.593c0.339-1.835-0.14-3.371-1.646-4.897
				c-1.378-1.393-3.643-1.371-6.34-0.575v0.011c-2.3,0.663-4.904,1.901-7.507,3.305c-2.592,1.393-5.196,2.951-7.496,4.278
				c-2.218,1.271-4.168,2.343-5.581,2.841c-0.654,0.232-1.296,0.431-1.926,0.597c-2.674,0.707-5.207,0.741-7.496-0.442V124.7
				c-2.849-1.481-5.336-4.897-7.262-11.352c-0.082-0.265-0.152-0.52-0.245-0.774c-2.067-6.754-4.577-12.69-7.484-17.84
				c-2.277-4.046-4.787-7.594-7.507-10.667c-2.358-2.653-4.869-4.952-7.507-6.897c-2.393-1.769-4.904-3.25-7.507-4.421
				c-2.428-1.116-4.927-1.979-7.507-2.575c-2.44-0.597-4.939-0.951-7.496-1.083v-0.011c-0.782-0.044-1.576-0.077-2.37-0.077
				l-0.514-0.155c1.156-2.111,2.534-4.068,4.086-5.825l0.082-0.321H161.392z"/>
			<path fill="#C9A7CB" d="M248.584,119.593h8.593c-0.514,1.802-1.366,3.78-2.592,5.936
				c-7.262,12.667-66.503,117.864-66.503,117.864h-25.534c17.805-24.882,69.831-97.669,77.735-109.53
				C244.79,127.098,247.989,122.876,248.584,119.593z"/>
			<path fill="#B17BB0" d="M165,260.062h-39.58l2.65-3.128h34.302h0.794c0.234,0.553,0.525,1.127,0.876,1.702
				c0.152,0.254,0.315,0.508,0.479,0.741C164.673,259.62,164.837,259.841,165,260.062z"/>
			<path fill="#C9A7CB" d="M188.082,246.521v10.412h-7.869h-0.012c-0.082-0.177-0.187-0.354-0.292-0.531
				c-0.257-0.431-0.525-0.84-0.806-1.216v-3.051h-3.911h-1.144v1.636v3.161h-5.511h-0.012c-0.082-0.177-0.187-0.354-0.292-0.531
				c-0.257-0.431-0.525-0.84-0.806-1.216v-3.051h-3.911h-1.144v1.636v3.161h-34.302v-10.412H188.082z"/>
			<polygon fill="#B17BB0" points="188.082,246.521 128.071,246.521 125.42,246.521 128.071,243.393 135.099,243.393 
				144.475,243.393 153.862,243.393 162.548,243.393 188.082,243.393 190.733,246.521 			"/>
			<path fill="#C9A7CB" d="M153.803,243.183l0.058,0.21h-9.387h-9.375l0.058-0.21c3.164-3.57,5.184-8.5,5.184-13.717
				c0-1.78-0.105-3.36-0.292-4.808l0.058-0.188h0.619h7.507h0.619l0.058,0.188c-0.198,1.448-0.304,3.029-0.304,4.808
				C148.608,234.683,150.639,239.613,153.803,243.183z"/>
			<rect x="140.727" y="92.744" fill="#B17BB0" width="7.507" height="131.726"/>
			<path fill="#C9A7CB" d="M151.421,92.744h-3.187h-7.507h-3.199l-0.082-0.31c0.304-2.288,0.467-4.808,0.467-7.616
				c0-8.279-3.211-16.116-8.231-21.798l-0.093-0.321h14.886h14.886l-0.082,0.321c-1.553,1.758-2.931,3.714-4.086,5.825
				c-0.082,0.144-0.152,0.276-0.222,0.42c-0.093,0.155-0.175,0.321-0.257,0.475c-0.105,0.21-0.21,0.409-0.304,0.619
				c-0.14,0.298-0.28,0.586-0.409,0.884c-0.292,0.619-0.56,1.26-0.794,1.901c-0.105,0.265-0.198,0.531-0.292,0.796
				c-0.093,0.243-0.175,0.497-0.257,0.741c-0.117,0.354-0.222,0.718-0.327,1.072c-0.012,0.044-0.023,0.077-0.035,0.111
				c-0.105,0.387-0.21,0.763-0.304,1.15c-0.152,0.63-0.292,1.271-0.409,1.923c-0.07,0.354-0.128,0.718-0.187,1.083
				c-0.093,0.575-0.163,1.161-0.21,1.746c-0.012,0.022-0.012,0.044-0.012,0.066c-0.035,0.376-0.07,0.763-0.082,1.15
				c-0.023,0.243-0.035,0.475-0.035,0.718c-0.012,0.376-0.023,0.741-0.023,1.116c0,2.808,0.175,5.328,0.467,7.616L151.421,92.744z"
				/>
			<polygon fill="#B17BB0" points="127.639,59.528 161.392,59.528 161.392,61.219 161.392,62.7 159.361,62.7 144.475,62.7 
				129.588,62.7 127.639,62.7 			"/>
			<g>
				
					<line fill="none" stroke="#FFFFFF" stroke-width="1.5" stroke-linecap="round" stroke-linejoin="round" stroke-miterlimit="10" x1="187.333" y1="229.094" x2="185.649" y2="232.084"/>
				
					<line fill="none" stroke="#FFFFFF" stroke-width="1.5" stroke-linecap="round" stroke-linejoin="round" stroke-miterlimit="10" x1="198.035" y1="210.098" x2="189.617" y2="225.04"/>
			</g>
		</g>
		<g>
			
				<polyline fill="none" stroke="#413D4C" stroke-width="1.4995" stroke-linecap="round" stroke-linejoin="round" stroke-miterlimit="10" points="
				128.071,246.521 125.42,246.521 128.071,243.393 135.099,243.393 			"/>
			
				<polyline fill="none" stroke="#413D4C" stroke-width="1.4995" stroke-linecap="round" stroke-linejoin="round" stroke-miterlimit="10" points="
				188.082,243.393 190.733,246.521 188.082,246.521 			"/>
			
				<path fill="none" stroke="#413D4C" stroke-width="1.4995" stroke-linecap="round" stroke-linejoin="round" stroke-miterlimit="10" d="
				M153.862,243.393h-9.387h-9.375l0.058-0.21c3.164-3.57,5.184-8.5,5.184-13.717c0-1.78-0.105-3.36-0.292-4.808l0.058-0.188h0.619"
				/>
			
				<polyline fill="none" stroke="#413D4C" stroke-width="1.4995" stroke-linecap="round" stroke-linejoin="round" stroke-miterlimit="10" points="
				129.588,62.7 127.639,62.7 127.639,59.528 161.392,59.528 161.392,61.219 			"/>
			
				<path fill="none" stroke="#413D4C" stroke-width="1.4995" stroke-linecap="round" stroke-linejoin="round" stroke-miterlimit="10" d="
				M159.361,62.7h-14.886h-14.886l0.093,0.321c5.02,5.682,8.231,13.519,8.231,21.798c0,2.808-0.163,5.328-0.467,7.616l0.082,0.31
				h3.199"/>
			
				<polyline fill="none" stroke="#413D4C" stroke-width="1.4995" stroke-linecap="round" stroke-linejoin="round" stroke-miterlimit="10" points="
				148.234,224.469 140.727,224.469 140.727,92.744 148.234,92.744 			"/>
			
				<path fill="none" stroke="#413D4C" stroke-width="1.4995" stroke-linecap="round" stroke-linejoin="round" stroke-miterlimit="10" d="
				M162.548,243.393h25.534c0,0,59.241-105.197,66.503-117.864c1.226-2.155,2.078-4.134,2.592-5.936
				c2.09-7.362-1.284-11.872-6.527-13.231c-11.559-2.984-22.86,6.798-28.943,8.953c-6.818,2.432-8.722,2.786-12.574-10.07
				c-9.002-30.033-26.748-43.894-47.741-44.026V62.7h-2.032l-0.082,0.321c-1.553,1.758-2.931,3.714-4.086,5.825"/>
			
				<path fill="none" stroke="#413D4C" stroke-width="1.4995" stroke-linecap="round" stroke-linejoin="round" stroke-miterlimit="10" d="
				M151.176,81.834c-0.035,0.376-0.07,0.763-0.082,1.15c-0.023,0.243-0.035,0.475-0.035,0.718"/>
			
				<path fill="none" stroke="#413D4C" stroke-width="1.4995" stroke-linecap="round" stroke-linejoin="round" stroke-miterlimit="10" d="
				M151.585,78.938c-0.07,0.365-0.14,0.718-0.187,1.083"/>
			
				<path fill="none" stroke="#413D4C" stroke-width="1.4995" stroke-linecap="round" stroke-linejoin="round" stroke-miterlimit="10" d="
				M152.297,75.865c-0.105,0.376-0.21,0.763-0.304,1.15"/>
			
				<path fill="none" stroke="#413D4C" stroke-width="1.4995" stroke-linecap="round" stroke-linejoin="round" stroke-miterlimit="10" d="
				M152.659,74.682c-0.117,0.354-0.222,0.707-0.327,1.072"/>
			
				<path fill="none" stroke="#413D4C" stroke-width="1.4995" stroke-linecap="round" stroke-linejoin="round" stroke-miterlimit="10" d="
				M153.208,73.146c-0.105,0.265-0.198,0.531-0.292,0.796"/>
			
				<path fill="none" stroke="#413D4C" stroke-width="1.4995" stroke-linecap="round" stroke-linejoin="round" stroke-miterlimit="10" d="
				M154.41,70.36c-0.152,0.298-0.292,0.586-0.409,0.884"/>
			
				<path fill="none" stroke="#413D4C" stroke-width="1.4995" stroke-linecap="round" stroke-linejoin="round" stroke-miterlimit="10" d="
				M154.971,69.266c-0.093,0.155-0.175,0.321-0.257,0.475"/>
			
				<path fill="none" stroke="#413D4C" stroke-width="1.4995" stroke-linecap="round" stroke-linejoin="round" stroke-miterlimit="10" d="
				M158.076,69.078c-0.782-0.044-1.576-0.077-2.37-0.077l-0.514-0.155c-0.082,0.144-0.152,0.276-0.222,0.42
				c-0.093,0.155-0.175,0.321-0.257,0.475c-0.105,0.21-0.21,0.409-0.304,0.619c-0.14,0.298-0.28,0.586-0.409,0.884
				c-0.292,0.619-0.56,1.26-0.794,1.901c-0.105,0.265-0.198,0.531-0.292,0.796c-0.093,0.243-0.175,0.497-0.257,0.741
				c-0.117,0.354-0.222,0.718-0.327,1.072c-0.012,0.044-0.023,0.077-0.035,0.111c-0.105,0.387-0.21,0.763-0.304,1.15
				c-0.152,0.63-0.292,1.271-0.409,1.923c-0.07,0.354-0.128,0.718-0.187,1.083c-0.093,0.575-0.163,1.161-0.21,1.746
				c-0.012,0.022-0.012,0.044-0.012,0.066c-0.035,0.376-0.07,0.763-0.082,1.15c-0.023,0.243-0.035,0.475-0.035,0.718
				c-0.012,0.376-0.023,0.741-0.023,1.116c0,2.808,0.175,5.328,0.467,7.616l-0.082,0.31h-3.187v131.726h0.619l0.058,0.188
				c-0.198,1.448-0.304,3.029-0.304,4.808c0,5.217,2.032,10.147,5.196,13.717l0.058,0.21h8.687
				c17.805-24.882,69.831-97.669,77.735-109.53c4.507-6.765,7.706-10.987,8.301-14.27c0.339-1.835-0.14-3.371-1.646-4.897
				c-1.378-1.393-3.643-1.371-6.34-0.575"/>
			
				<path fill="none" stroke="#413D4C" stroke-width="1.4995" stroke-linecap="round" stroke-linejoin="round" stroke-miterlimit="10" d="
				M210.592,124.7c-2.849-1.481-5.336-4.897-7.262-11.352c-0.082-0.265-0.152-0.52-0.245-0.774
				c-2.067-6.754-4.577-12.69-7.484-17.84c-2.277-4.046-4.787-7.594-7.507-10.667c-2.358-2.653-4.869-4.952-7.507-6.897
				c-2.393-1.769-4.904-3.25-7.507-4.421c-2.428-1.116-4.927-1.979-7.507-2.575c-2.44-0.597-4.939-0.951-7.496-1.083"/>
			
				<path fill="none" stroke="#413D4C" stroke-width="1.4995" stroke-linecap="round" stroke-linejoin="round" stroke-miterlimit="10" d="
				M240.598,114.132c-2.3,0.663-4.904,1.901-7.507,3.305c-2.592,1.393-5.196,2.951-7.496,4.278
				c-2.218,1.271-4.168,2.343-5.581,2.841c-0.654,0.232-1.296,0.431-1.926,0.597c-2.674,0.707-5.207,0.741-7.496-0.442"/>
			
				<path fill="none" stroke="#413D4C" stroke-width="1.4995" stroke-linecap="round" stroke-linejoin="round" stroke-miterlimit="10" d="
				M235.987,135.974c1.926-3.626,2.137-6.079-0.257-8.511c-0.782-0.785-1.67-1.127-2.639-1.116c-2.207,0.011-4.822,1.78-7.496,3.913
				c-2.545,2.034-5.161,4.399-7.507,5.892c-0.794,0.508-1.553,0.917-2.277,1.172c-1.798,0.641-3.549,1.061-5.219,1.083
				c-2.767,0.055-5.301-0.973-7.507-3.813c-1.494-1.923-2.814-4.665-3.958-8.478c-1.062-3.526-2.242-6.842-3.538-9.937
				c-2.195-5.228-4.705-9.849-7.507-13.861c-2.312-3.316-4.822-6.223-7.496-8.721c-2.382-2.233-4.892-4.134-7.507-5.715
				c-2.405-1.47-4.915-2.664-7.507-3.581c-2.428-0.895-4.927-1.536-7.496-1.945c-2.253-0.376-4.553-0.564-6.889-0.586
				c-0.012,0-0.023,0-0.035,0"/>
			<polyline fill="none" stroke="#413D4C" stroke-width="1.5" stroke-linecap="round" stroke-miterlimit="10" points="
				158.076,69.078 158.076,69.089 158.076,82.353 158.076,237.877 			"/>
			<polyline fill="none" stroke="#413D4C" stroke-width="1.5" stroke-linecap="round" stroke-miterlimit="10" points="
				165.572,70.172 165.572,84.299 165.572,228.073 			"/>
			<polyline fill="none" stroke="#413D4C" stroke-width="1.5" stroke-linecap="round" stroke-miterlimit="10" points="
				173.079,72.748 173.079,87.88 173.079,218.158 			"/>
			<polyline fill="none" stroke="#413D4C" stroke-width="1.5" stroke-linecap="round" stroke-miterlimit="10" points="
				180.587,77.169 180.587,93.595 180.587,208.464 			"/>
			<polyline fill="none" stroke="#413D4C" stroke-width="1.5" stroke-linecap="round" stroke-miterlimit="10" points="
				188.082,84.078 188.082,102.316 188.082,198.659 			"/>
			<polyline fill="none" stroke="#413D4C" stroke-width="1.5" stroke-linecap="round" stroke-miterlimit="10" points="
				195.59,94.733 195.59,116.177 195.59,188.855 			"/>
			<polyline fill="none" stroke="#413D4C" stroke-width="1.5" stroke-linecap="round" stroke-miterlimit="10" points="
				203.085,112.574 203.085,134.593 203.085,179.05 			"/>
			<polyline fill="none" stroke="#413D4C" stroke-width="1.5" stroke-linecap="round" stroke-miterlimit="10" points="
				210.592,124.7 210.592,124.711 210.592,138.406 210.592,169.246 			"/>
			<polyline fill="none" stroke="#413D4C" stroke-width="1.5" stroke-linecap="round" stroke-miterlimit="10" points="
				218.088,125.153 218.088,136.151 218.088,159.441 			"/>
			<polyline fill="none" stroke="#413D4C" stroke-width="1.5" stroke-linecap="round" stroke-miterlimit="10" points="
				225.595,121.715 225.595,130.26 225.595,149.636 			"/>
			<polyline fill="none" stroke="#413D4C" stroke-width="1.5" stroke-linecap="round" stroke-miterlimit="10" points="
				233.091,117.437 233.091,126.347 233.091,139.832 			"/>
			<polyline fill="none" stroke="#413D4C" stroke-width="1.5" stroke-linecap="round" stroke-miterlimit="10" points="
				240.598,114.121 240.598,114.132 240.598,130.027 			"/>
			
				<polyline fill="none" stroke="#413D4C" stroke-width="1.4995" stroke-linecap="round" stroke-linejoin="round" stroke-miterlimit="10" points="
				248.584,119.593 240.598,130.027 236.033,136.007 233.091,139.832 225.595,149.636 218.088,159.441 210.592,169.246 
				203.085,179.05 195.59,188.855 188.082,198.659 180.587,208.464 173.138,218.202 165.584,228.073 158.076,237.877 
				153.862,243.393 			"/>
			
				<line fill="none" stroke="#413D4C" stroke-width="1.4995" stroke-linecap="round" stroke-linejoin="round" stroke-miterlimit="10" x1="248.584" y1="119.593" x2="257.177" y2="119.593"/>
			
				<path fill="none" stroke="#413D4C" stroke-width="1.4995" stroke-linecap="round" stroke-linejoin="round" stroke-miterlimit="10" d="
				M128.071,256.934l-2.65,3.128H165h0.012c-0.163-0.221-0.327-0.442-0.49-0.685"/>
			
				<path fill="none" stroke="#413D4C" stroke-width="1.4995" stroke-linecap="round" stroke-linejoin="round" stroke-miterlimit="10" d="
				M164.043,258.636c-0.339-0.575-0.619-1.15-0.864-1.702"/>
			
				<path fill="none" stroke="#413D4C" stroke-width="1.4995" stroke-linecap="round" stroke-linejoin="round" stroke-miterlimit="10" d="
				M180.201,256.934c0.304,0.564,0.56,1.105,0.759,1.625c0.105,0.265,0.198,0.531,0.269,0.774c0.082,0.254,0.14,0.497,0.198,0.73
				h9.305l-2.65-3.128"/>
			
				<path fill="none" stroke="#413D4C" stroke-width="1.4995" stroke-linecap="round" stroke-linejoin="round" stroke-miterlimit="10" d="
				M168.526,256.934c0.304,0.564,0.56,1.105,0.759,1.625c0.105,0.265,0.198,0.531,0.269,0.774c0.082,0.254,0.14,0.497,0.198,0.73
				h6.924h0.012c-0.163-0.221-0.327-0.442-0.49-0.685"/>
			
				<path fill="none" stroke="#413D4C" stroke-width="1.4995" stroke-linecap="round" stroke-linejoin="round" stroke-miterlimit="10" d="
				M175.718,258.636c-0.339-0.575-0.619-1.15-0.864-1.702"/>
			
				<polyline fill="none" stroke="#413D4C" stroke-width="1.4995" stroke-linecap="round" stroke-linejoin="round" stroke-miterlimit="10" points="
				180.213,256.934 188.082,256.934 188.082,246.521 128.071,246.521 128.071,256.934 162.373,256.934 			"/>
			
				<line fill="none" stroke="#413D4C" stroke-width="1.4995" stroke-linecap="round" stroke-linejoin="round" stroke-miterlimit="10" x1="168.538" y1="256.934" x2="174.048" y2="256.934"/>
			
				<path fill="none" stroke="#413D4C" stroke-width="1.4995" stroke-linecap="round" stroke-linejoin="round" stroke-miterlimit="10" d="
				M174.212,252.822c0.047-0.133,0.117-0.243,0.198-0.332"/>
			
				<path fill="none" stroke="#413D4C" stroke-width="1.4995" stroke-linecap="round" stroke-linejoin="round" stroke-miterlimit="10" d="
				M174.375,255.629c-0.315-1.039-0.397-1.923-0.245-2.553"/>
			
				<path fill="none" stroke="#413D4C" stroke-width="1.4995" stroke-linecap="round" stroke-linejoin="round" stroke-miterlimit="10" d="
				M179.104,255.198v-0.011v-3.051h-3.911h-1.144v1.636v3.161h0.794h0.012c-0.07-0.155-0.128-0.298-0.187-0.442"/>
			
				<path fill="none" stroke="#413D4C" stroke-width="1.4995" stroke-linecap="round" stroke-linejoin="round" stroke-miterlimit="10" d="
				M174.924,252.17c0.14-0.033,0.304-0.033,0.467-0.011c0.14,0.022,0.28,0.055,0.432,0.111c0.817,0.287,1.821,1.105,2.767,2.266
				c0.082,0.099,0.175,0.21,0.257,0.321s0.163,0.221,0.257,0.332"/>
			
				<path fill="none" stroke="#413D4C" stroke-width="1.4995" stroke-linecap="round" stroke-linejoin="round" stroke-miterlimit="10" d="
				M162.536,252.822c0.047-0.133,0.117-0.243,0.198-0.332"/>
			
				<path fill="none" stroke="#413D4C" stroke-width="1.4995" stroke-linecap="round" stroke-linejoin="round" stroke-miterlimit="10" d="
				M162.7,255.629c-0.315-1.039-0.397-1.923-0.245-2.553"/>
			
				<path fill="none" stroke="#413D4C" stroke-width="1.4995" stroke-linecap="round" stroke-linejoin="round" stroke-miterlimit="10" d="
				M167.428,255.198v-0.011v-3.051h-3.911h-1.144v1.636v3.161h0.794h0.012c-0.07-0.155-0.128-0.298-0.187-0.442"/>
			
				<path fill="none" stroke="#413D4C" stroke-width="1.4995" stroke-linecap="round" stroke-linejoin="round" stroke-miterlimit="10" d="
				M163.249,252.17c0.14-0.033,0.304-0.033,0.467-0.011c0.14,0.022,0.28,0.055,0.432,0.111c0.817,0.287,1.821,1.105,2.767,2.266
				c0.082,0.099,0.175,0.21,0.257,0.321s0.163,0.221,0.257,0.332"/>
			
				<path fill="none" stroke="#413D4C" stroke-width="1.4995" stroke-linecap="round" stroke-linejoin="round" stroke-miterlimit="10" d="
				M167.428,255.187c0.28,0.376,0.549,0.785,0.806,1.216c0.105,0.177,0.21,0.354,0.292,0.531h0.012
				c0.304,0.553,0.549,1.094,0.747,1.625c0.117,0.265,0.198,0.531,0.269,0.774c0.093,0.254,0.152,0.497,0.198,0.73
				c0.304,1.349,0.163,2.377-0.479,2.719c-0.957,0.508-2.72-0.663-4.273-2.719c-0.163-0.221-0.327-0.442-0.479-0.685
				c-0.163-0.232-0.327-0.486-0.479-0.741c-0.35-0.575-0.642-1.15-0.876-1.702c-0.07-0.155-0.128-0.298-0.175-0.442
				c-0.128-0.298-0.222-0.586-0.292-0.862c-0.222-0.696-0.327-1.326-0.327-1.857c0-0.254,0.023-0.497,0.082-0.696
				c0.012-0.088,0.047-0.177,0.082-0.254c0.047-0.122,0.117-0.243,0.198-0.332c0.082-0.099,0.175-0.177,0.28-0.232
				c0.07-0.044,0.152-0.066,0.234-0.088c0.093-0.022,0.175-0.033,0.269-0.033c0.058,0,0.128,0,0.198,0.022
				c0.128,0.011,0.28,0.044,0.432,0.111c0.829,0.287,1.821,1.105,2.767,2.266c0.093,0.099,0.187,0.21,0.257,0.321
				C167.265,254.966,167.347,255.077,167.428,255.187z"/>
			
				<path fill="none" stroke="#413D4C" stroke-width="1.4995" stroke-linecap="round" stroke-linejoin="round" stroke-miterlimit="10" d="
				M179.104,255.187c0.28,0.376,0.549,0.785,0.806,1.216c0.105,0.177,0.21,0.354,0.292,0.531h0.012
				c0.304,0.553,0.549,1.094,0.747,1.625c0.117,0.265,0.198,0.531,0.269,0.774c0.093,0.254,0.152,0.497,0.198,0.73
				c0.304,1.349,0.163,2.377-0.479,2.719c-0.957,0.508-2.72-0.663-4.273-2.719c-0.163-0.221-0.327-0.442-0.479-0.685
				c-0.163-0.232-0.327-0.486-0.479-0.741c-0.35-0.575-0.642-1.15-0.876-1.702c-0.07-0.155-0.128-0.298-0.175-0.442
				c-0.128-0.298-0.222-0.586-0.292-0.862c-0.222-0.696-0.327-1.326-0.327-1.857c0-0.254,0.023-0.497,0.082-0.696
				c0.012-0.088,0.047-0.177,0.082-0.254c0.047-0.122,0.117-0.243,0.198-0.332c0.082-0.099,0.175-0.177,0.28-0.232
				c0.07-0.044,0.152-0.066,0.234-0.088c0.093-0.022,0.175-0.033,0.269-0.033c0.058,0,0.128,0,0.198,0.022
				c0.128,0.011,0.28,0.044,0.432,0.111c0.829,0.287,1.821,1.105,2.767,2.266c0.093,0.099,0.187,0.21,0.257,0.321
				C178.94,254.966,179.022,255.077,179.104,255.187z"/>
		</g>
	</g>
</g>
</svg>
