<?xml version="1.0" encoding="utf-8"?>
<!-- Generator: Adobe Illustrator 17.0.0, SVG Export Plug-In . SVG Version: 6.00 Build 0)  -->
<!DOCTYPE svg PUBLIC "-//W3C//DTD SVG 1.1//EN" "http://www.w3.org/Graphics/SVG/1.1/DTD/svg11.dtd">
<svg version="1.1" id="Calque_1" xmlns="http://www.w3.org/2000/svg" xmlns:xlink="http://www.w3.org/1999/xlink" x="0px" y="0px"
	 width="340.157px" height="340.157px" viewBox="0 0 340.157 340.157" enable-background="new 0 0 340.157 340.157"
	 xml:space="preserve">
<g>
	<g>
		<g>
			<path fill="#F6F6F6" d="M252.284,193.336c0-45.501-36.804-82.388-82.205-82.388s-82.205,36.886-82.205,82.388
				c0,28.148,14.094,52.987,35.586,67.849h93.238C238.189,246.323,252.284,221.484,252.284,193.336z"/>
		</g>
		
			<line fill="none" stroke="#413D4C" stroke-width="1.5" stroke-linecap="round" stroke-miterlimit="10" x1="116.604" y1="261.185" x2="223.554" y2="261.185"/>
		
			<line fill="none" stroke="#C9A7CB" stroke-width="1.5" stroke-linecap="round" stroke-linejoin="round" stroke-miterlimit="10" x1="135.143" y1="270.907" x2="205.014" y2="270.907"/>
		<g>
			
				<line fill="none" stroke="#C9A7CB" stroke-width="1.5" stroke-linecap="round" stroke-linejoin="round" stroke-miterlimit="10" x1="156.896" y1="280.63" x2="170.937" y2="280.63"/>
			
				<line fill="none" stroke="#C9A7CB" stroke-width="1.5" stroke-linecap="round" stroke-linejoin="round" stroke-miterlimit="10" x1="179.51" y1="280.63" x2="183.262" y2="280.63"/>
		</g>
	</g>
	<g>
		<path fill="#FFE28A" d="M154.211,70.352c0.007-0.605,0.215-3.612,3.606-3.612c0.005,0,0.006,0,0.006,0c0.007,0,0.012,0,0.016,0
			h0.001h0.004h0.004h0.004c0.647-0.019,1.167-0.549,1.167-1.202c0-0.662-0.535-1.198-1.196-1.202
			c-0.605-0.007-3.612-0.215-3.612-3.606c0-0.664-0.538-1.202-1.202-1.202s-1.202,0.538-1.202,1.202
			c0,3.392-3.008,3.599-3.612,3.606c-0.661,0.004-1.196,0.54-1.196,1.202c0,0.664,0.538,1.202,1.202,1.202
			c3.394,0,3.599,3.01,3.606,3.606c0,0.005,0,0.006,0,0.006c0.001,0.008,0.004,0.019,0,0.017v0.004v0.004v0.005
			c0.019,0.647,0.549,1.167,1.202,1.167C153.671,71.548,154.207,71.013,154.211,70.352z"/>
		<path fill="#FFE28A" d="M100.02,143.973c0.007-0.604,0.215-3.612,3.606-3.612c0.005,0,0.006,0,0.006,0h0.017h0.001
			c0.002,0,0.004,0,0.004,0h0.003h0.005c0.647-0.019,1.167-0.549,1.167-1.202c0-0.662-0.535-1.199-1.196-1.202
			c-0.604-0.007-3.612-0.215-3.612-3.606c0-0.664-0.538-1.202-1.202-1.202s-1.202,0.538-1.202,1.202
			c0,3.391-3.008,3.599-3.612,3.606c-0.661,0.003-1.196,0.54-1.196,1.202c0,0.664,0.538,1.202,1.202,1.202
			c3.394,0,3.599,3.01,3.606,3.606c0,0.005,0,0.006,0,0.006c0.001,0.008,0.004,0.019,0,0.018v0.004v0.003c0,0,0,0.002,0,0.005
			c0.019,0.647,0.549,1.167,1.202,1.167C99.48,145.17,100.017,144.634,100.02,143.973z"/>
		<path fill="#FFE28A" d="M245.563,134.958c0.007-0.605,0.215-3.612,3.606-3.612c0.005,0,0.006,0,0.006,0c0.007,0,0.012,0,0.012,0
			h0.006h0.004h0.004h0.004c0.647-0.019,1.167-0.549,1.167-1.202c0-0.662-0.535-1.198-1.196-1.202
			c-0.605-0.007-3.612-0.215-3.612-3.606c0-0.664-0.538-1.202-1.202-1.202c-0.664,0-1.202,0.538-1.202,1.202
			c0,3.392-3.008,3.599-3.612,3.606c-0.661,0.004-1.196,0.54-1.196,1.202c0,0.664,0.538,1.202,1.202,1.202
			c3.394,0,3.599,3.01,3.606,3.606c0,0.005,0,0.006,0,0.006c0.001,0.008,0.004,0.019,0,0.017v0.004v0.004v0.005
			c0.019,0.647,0.549,1.167,1.202,1.167C245.023,136.154,245.56,135.619,245.563,134.958z"/>
		<path fill="#FFE28A" d="M196.986,102.024c0.003-0.302,0.107-1.806,1.803-1.806h0.004h0.007h0.001h0.002h0.001h0.001
			c0.325-0.01,0.585-0.275,0.585-0.601c0-0.331-0.268-0.599-0.598-0.601c-0.302-0.004-1.806-0.108-1.806-1.803
			c0-0.332-0.269-0.601-0.601-0.601c-0.332,0-0.601,0.269-0.601,0.601c0,1.696-1.504,1.8-1.806,1.803
			c-0.331,0.002-0.598,0.27-0.598,0.601c0,0.332,0.269,0.601,0.601,0.601c1.697,0,1.8,1.505,1.803,1.803c0,0.002,0,0.003,0,0.003
			c0.001,0.004,0.002,0.01,0.002,0.01l-0.002,0.001v0.002v0.002c0.009,0.323,0.275,0.584,0.601,0.584
			C196.715,102.622,196.984,102.354,196.986,102.024z"/>
		<path fill="#FFE28A" d="M217.312,138.561c0.004-0.302,0.107-1.806,1.803-1.806h0.004h0.007h0.001h0.002h0.002h0.001
			c0.325-0.01,0.585-0.275,0.585-0.601c0-0.331-0.268-0.599-0.598-0.601c-0.302-0.004-1.806-0.108-1.806-1.803
			c0-0.332-0.269-0.601-0.601-0.601s-0.601,0.269-0.601,0.601c0,1.696-1.504,1.8-1.806,1.803c-0.33,0.002-0.598,0.27-0.598,0.601
			c0,0.332,0.269,0.601,0.601,0.601c1.697,0,1.8,1.505,1.803,1.803c0,0.002,0,0.003,0,0.003c0.001,0.004,0.002,0.01,0.002,0.01
			l-0.002,0.001v0.002v0.002c0.009,0.323,0.275,0.584,0.601,0.584C217.042,139.159,217.31,138.891,217.312,138.561z"/>
	</g>
	<g id="XMLID_1_">
		<g>
			<polygon fill="#FBC039" points="129.844,206.412 123.789,212.846 113.78,212.846 114.457,212.252 121.153,206.412 			"/>
			<polygon fill="#B17BB0" points="196.384,180.497 143.773,180.497 147.288,156.44 154.168,156.44 192.869,156.44 			"/>
			<polygon fill="#B17BB0" points="237.335,216.038 102.822,216.038 102.822,212.846 112.023,212.846 113.353,212.846 
				113.754,212.846 113.78,212.846 123.789,212.846 138.658,212.846 150.442,212.846 160.645,212.846 170.162,212.846 
				179.688,212.846 189.917,212.846 201.754,212.846 216.71,212.846 226.799,212.846 237.335,212.846 			"/>
			<path fill="#C9A7CB" d="M243.495,223.813h-17.435h-17.444H169.23h-11.187h-11.196H131.54h-17.435H96.662h-8.788v-43.317
				c0,0,33.666,0,55.899,0h52.612h32.848h7.206h15.844v43.317H243.495z M237.335,216.038v-3.192l-8.788-6.434h0.07V187.16H111.539
				v19.252l-8.717,6.434h9.201h-9.201v3.192H237.335z"/>
			<path fill="#B17BB0" d="M158.044,223.813h11.187v3.09c0,0-1.538,0-2.865,0c-1.327,0-2.803,0.654-3.717,1.579h-0.009l-0.009,0.008
				c-0.861,0.883-1.415,2.597-1.415,3.395s0,25.898,0,25.898h-0.975h-2.197h-2.206h-0.967c0,0,0-25.1,0-25.898
				s-0.562-2.513-1.424-3.395v-0.008h-0.009c-0.914-0.925-2.399-1.579-3.726-1.579c-1.327,0-2.865,0-2.865,0v-3.09H158.044z"/>
			<path fill="#FBC039" d="M160.241,257.784c0.185,0.331,0.29,0.713,0.29,1.12c0,1.333-1.116,2.402-2.487,2.402
				c-1.38,0-2.496-1.07-2.496-2.402c0-0.407,0.105-0.789,0.29-1.12h2.206H160.241z"/>
			<path fill="#FFE28A" d="M228.956,270.202c0.239,0.439,0.377,0.937,0.377,1.473c0,1.748-1.463,3.162-3.273,3.162
				c-1.81,0-3.273-1.413-3.273-3.162c0-0.536,0.131-1.034,0.377-1.473h2.896H228.956z"/>
			<polygon fill="#FBC039" points="187.316,206.412 197.597,206.412 201.754,212.846 189.917,212.846 			"/>
			<path fill="#C9A7CB" d="M180.98,89.28c0,0,6.195,14.371,1.169,25.296c-0.888,1.927-2.821,4.804-5.343,8.319
				c-0.914,1.282-1.916,2.648-2.97,4.091c-6.23,8.505-14.377,19.413-19.667,29.455h-6.881l-3.515,24.056
				c-22.233,0-55.899,0-55.899,0L180.98,89.28z"/>
			<path fill="#B17BB0" d="M176.805,122.894l59.633,57.603h-7.206l-55.398-53.511C174.89,125.542,175.892,124.176,176.805,122.894z"
				/>
			<path fill="#C9A7CB" d="M129.384,223.813v4.218c0,0-2.102,0-3.912,0s-3.835,0.893-5.083,2.157h-0.008l-0.008,0.015
				c-1.178,1.198-1.941,3.548-1.941,4.634c0,1.094,0,35.365,0,35.365H117h-2.896h-2.903h-1.432c0,0,0-34.271,0-35.365
				c0-1.086-0.762-3.437-1.941-4.634v-0.015h-0.015c-1.248-1.265-3.273-2.157-5.083-2.157s-3.912,0-3.912,0v-4.218h15.287H129.384z"
				/>
			<polygon fill="#FBC039" points="219.373,206.412 226.799,212.846 216.71,212.846 210.603,206.412 			"/>
			<path fill="#C9A7CB" d="M226.06,223.813h15.279v4.218c0,0-2.102,0-3.912,0c-1.81,0-3.835,0.893-5.083,2.157h-0.008l-0.008,0.015
				c-1.178,1.198-1.941,3.548-1.941,4.634c0,1.094,0,35.365,0,35.365h-1.432h-2.896h-2.896h-1.44c0,0,0-34.271,0-35.365
				c0-1.086-0.762-3.437-1.941-4.634v-0.015h-0.015c-1.248-1.265-3.273-2.157-5.083-2.157c-1.81,0-3.912,0-3.912,0v-4.218H226.06z"
				/>
			<polygon fill="#FBC039" points="153.008,206.412 161.875,206.412 160.645,212.846 150.442,212.846 			"/>
			<polygon fill="#FBC039" points="187.316,206.412 189.917,212.846 179.688,212.846 178.431,206.412 			"/>
			<polygon fill="#FBC039" points="153.008,206.412 150.442,212.846 138.658,212.846 142.771,206.412 			"/>
			<path fill="#FFE28A" d="M117,270.202c0.239,0.439,0.377,0.937,0.377,1.473c0,1.748-1.471,3.162-3.273,3.162
				c-1.81,0-3.281-1.413-3.281-3.162c0-0.536,0.139-1.034,0.377-1.473h2.903H117z"/>
			<polygon fill="#B17BB0" points="228.618,206.412 228.547,206.412 219.373,206.412 210.603,206.412 197.597,206.412 
				187.316,206.412 178.431,206.412 170.153,206.412 161.875,206.412 153.008,206.412 142.771,206.412 129.844,206.412 
				121.153,206.412 112.093,206.412 111.68,206.403 111.671,206.412 111.539,206.412 111.539,187.16 228.618,187.16 			"/>
			<g>
				
					<path fill="none" stroke="#FFFFFF" stroke-width="1.5" stroke-linecap="round" stroke-linejoin="round" stroke-miterlimit="10" d="
					M174.085,116.626c-0.667,0.943-1.378,1.906-2.121,2.905"/>
				
					<path fill="none" stroke="#FFFFFF" stroke-width="1.5" stroke-linecap="round" stroke-linejoin="round" stroke-miterlimit="10" d="
					M178.631,97.864c1.558,6.119,0.442,10.53-2.059,14.919"/>
			</g>
		</g>
		<g>
			
				<line fill="none" stroke="#413D4C" stroke-width="1.4995" stroke-linecap="round" stroke-linejoin="round" stroke-miterlimit="10" x1="196.385" y1="180.497" x2="229.233" y2="180.497"/>
			
				<polyline fill="none" stroke="#413D4C" stroke-width="1.4995" stroke-linecap="round" stroke-linejoin="round" stroke-miterlimit="10" points="
				98.818,223.813 87.874,223.813 87.874,180.497 			"/>
			
				<line fill="none" stroke="#413D4C" stroke-width="1.4995" stroke-linecap="round" stroke-linejoin="round" stroke-miterlimit="10" x1="146.849" y1="223.813" x2="129.384" y2="223.813"/>
			
				<line fill="none" stroke="#413D4C" stroke-width="1.4995" stroke-linecap="round" stroke-linejoin="round" stroke-miterlimit="10" x1="210.773" y1="223.813" x2="169.231" y2="223.813"/>
			
				<polyline fill="none" stroke="#413D4C" stroke-width="1.4995" stroke-linecap="round" stroke-linejoin="round" stroke-miterlimit="10" points="
				236.439,180.497 252.283,180.497 252.283,223.813 241.339,223.813 			"/>
			
				<polyline fill="none" stroke="#413D4C" stroke-width="1.4995" stroke-linecap="round" stroke-linejoin="round" stroke-miterlimit="10" points="
				173.836,126.985 229.233,180.497 236.439,180.497 176.806,122.894 			"/>
			
				<line fill="none" stroke="#413D4C" stroke-width="1.4995" stroke-linecap="round" stroke-linejoin="round" stroke-miterlimit="10" x1="148.905" y1="176.541" x2="191.253" y2="176.541"/>
			
				<path fill="none" stroke="#413D4C" stroke-width="1.4995" stroke-linecap="round" stroke-linejoin="round" stroke-miterlimit="10" d="
				M154.169,156.44c5.29-10.042,13.436-20.95,19.667-29.455c1.055-1.443,2.056-2.81,2.97-4.091c2.522-3.514,4.455-6.392,5.343-8.319
				c5.027-10.925-1.169-25.296-1.169-25.296l-93.106,91.217c0,0,33.666,0,55.899,0"/>
			
				<polygon fill="none" stroke="#413D4C" stroke-width="1.4995" stroke-linecap="round" stroke-linejoin="round" stroke-miterlimit="10" points="
				237.336,212.846 237.336,216.038 102.822,216.038 102.822,212.846 112.023,212.846 113.754,212.846 113.78,212.846 			"/>
			
				<path fill="none" stroke="#413D4C" stroke-width="1.4995" stroke-linecap="round" stroke-linejoin="round" stroke-miterlimit="10" d="
				M111.202,270.202c-0.239,0.439-0.377,0.937-0.377,1.473c0,1.748,1.471,3.162,3.281,3.162c1.802,0,3.273-1.413,3.273-3.162
				c0-0.536-0.139-1.034-0.377-1.473"/>
			
				<path fill="none" stroke="#413D4C" stroke-width="1.4995" stroke-linecap="round" stroke-linejoin="round" stroke-miterlimit="10" d="
				M129.384,223.813h-15.279H98.818v4.218c0,0,2.102,0,3.912,0s3.835,0.893,5.083,2.157h0.015v0.015
				c1.178,1.198,1.941,3.548,1.941,4.634c0,1.094,0,35.365,0,35.365h1.432h2.903h2.896h1.432c0,0,0-34.271,0-35.365
				c0-1.086,0.762-3.437,1.941-4.634l0.008-0.015h0.008c1.248-1.265,3.273-2.157,5.083-2.157s3.912,0,3.912,0V223.813z"/>
			
				<polygon fill="none" stroke="#413D4C" stroke-width="1.4995" stroke-linecap="round" stroke-linejoin="round" stroke-miterlimit="10" points="
				121.153,206.412 111.54,206.412 111.54,187.16 228.618,187.16 228.618,206.412 228.548,206.412 			"/>
			
				<path fill="none" stroke="#413D4C" stroke-width="1.4995" stroke-linecap="round" stroke-linejoin="round" stroke-miterlimit="10" d="
				M155.838,257.784c-0.185,0.331-0.29,0.713-0.29,1.12c0,1.333,1.116,2.402,2.496,2.402c1.371,0,2.487-1.07,2.487-2.402
				c0-0.407-0.105-0.789-0.29-1.12"/>
			
				<path fill="none" stroke="#413D4C" stroke-width="1.4995" stroke-linecap="round" stroke-linejoin="round" stroke-miterlimit="10" d="
				M169.231,223.813h-11.187h-11.196v3.09c0,0,1.538,0,2.865,0c1.327,0,2.812,0.654,3.726,1.579h0.009v0.008
				c0.861,0.883,1.424,2.597,1.424,3.395s0,25.898,0,25.898h0.967h2.206h2.197h0.975c0,0,0-25.1,0-25.898s0.554-2.513,1.415-3.395
				l0.009-0.008h0.009c0.914-0.925,2.39-1.579,3.717-1.579c1.327,0,2.865,0,2.865,0V223.813z"/>
			
				<path fill="none" stroke="#413D4C" stroke-width="1.4995" stroke-linecap="round" stroke-linejoin="round" stroke-miterlimit="10" d="
				M223.165,270.202c-0.246,0.439-0.377,0.937-0.377,1.473c0,1.748,1.463,3.162,3.273,3.162c1.81,0,3.273-1.413,3.273-3.162
				c0-0.536-0.139-1.034-0.377-1.473"/>
			
				<path fill="none" stroke="#413D4C" stroke-width="1.4995" stroke-linecap="round" stroke-linejoin="round" stroke-miterlimit="10" d="
				M241.339,223.813H226.06h-15.287v4.218c0,0,2.102,0,3.912,0c1.81,0,3.835,0.893,5.083,2.157h0.015v0.015
				c1.178,1.198,1.941,3.548,1.941,4.634c0,1.094,0,35.365,0,35.365h1.44h2.896h2.896h1.432c0,0,0-34.271,0-35.365
				c0-1.086,0.762-3.437,1.941-4.634l0.008-0.015h0.008c1.248-1.265,3.273-2.157,5.083-2.157c1.81,0,3.912,0,3.912,0V223.813z"/>
			
				<polyline fill="none" stroke="#413D4C" stroke-width="1.4995" stroke-linecap="round" stroke-linejoin="round" stroke-miterlimit="10" points="
				226.799,212.846 237.336,212.846 228.548,206.412 219.373,206.412 			"/>
			
				<line fill="none" stroke="#413D4C" stroke-width="1.4995" stroke-linecap="round" stroke-linejoin="round" stroke-miterlimit="10" x1="178.432" y1="206.412" x2="170.154" y2="206.412"/>
			
				<line fill="none" stroke="#413D4C" stroke-width="1.4995" stroke-linecap="round" stroke-linejoin="round" stroke-miterlimit="10" x1="111.539" y1="206.412" x2="102.822" y2="212.846"/>
			
				<line fill="none" stroke="#413D4C" stroke-width="1.4995" stroke-linecap="round" stroke-linejoin="round" stroke-miterlimit="10" x1="170.162" y1="212.846" x2="179.688" y2="212.846"/>
			
				<polyline fill="none" stroke="#413D4C" stroke-width="1.4995" stroke-linecap="round" stroke-linejoin="round" stroke-miterlimit="10" points="
				187.316,206.412 178.432,206.412 179.688,212.846 189.917,212.846 			"/>
			
				<polyline fill="none" stroke="#413D4C" stroke-width="1.4995" stroke-linecap="round" stroke-linejoin="round" stroke-miterlimit="10" points="
				197.598,206.412 187.316,206.412 189.917,212.846 201.754,212.846 			"/>
			
				<polyline fill="none" stroke="#413D4C" stroke-width="1.4995" stroke-linecap="round" stroke-linejoin="round" stroke-miterlimit="10" points="
				210.603,206.412 197.598,206.412 201.754,212.846 216.711,212.846 			"/>
			
				<polygon fill="none" stroke="#413D4C" stroke-width="1.4995" stroke-linecap="round" stroke-linejoin="round" stroke-miterlimit="10" points="
				219.373,206.412 210.603,206.412 216.711,212.846 226.799,212.846 			"/>
			
				<line fill="none" stroke="#413D4C" stroke-width="1.4995" stroke-linecap="round" stroke-linejoin="round" stroke-miterlimit="10" x1="153.009" y1="206.412" x2="142.771" y2="206.412"/>
			
				<line fill="none" stroke="#413D4C" stroke-width="1.4995" stroke-linecap="round" stroke-linejoin="round" stroke-miterlimit="10" x1="138.658" y1="212.846" x2="150.443" y2="212.846"/>
			
				<polyline fill="none" stroke="#413D4C" stroke-width="1.4995" stroke-linecap="round" stroke-linejoin="round" stroke-miterlimit="10" points="
				129.844,206.412 121.153,206.412 120.942,206.59 114.457,212.252 113.78,212.846 123.79,212.846 			"/>
			
				<polygon fill="none" stroke="#413D4C" stroke-width="1.4995" stroke-linecap="round" stroke-linejoin="round" stroke-miterlimit="10" points="
				129.844,206.412 123.79,212.846 138.658,212.846 142.771,206.412 			"/>
			
				<polyline fill="none" stroke="#413D4C" stroke-width="1.4995" stroke-linecap="round" stroke-linejoin="round" stroke-miterlimit="10" points="
				161.876,206.412 153.009,206.412 150.443,212.846 160.645,212.846 			"/>
			
				<polygon fill="none" stroke="#413D4C" stroke-width="1.4995" stroke-linecap="round" stroke-linejoin="round" stroke-miterlimit="10" points="
				161.876,206.412 160.645,212.846 170.162,212.846 170.154,206.412 			"/>
			
				<polygon fill="none" stroke="#413D4C" stroke-width="1.4995" stroke-linecap="round" stroke-linejoin="round" stroke-miterlimit="10" points="
				196.385,180.497 143.773,180.497 147.288,156.44 154.169,156.44 192.87,156.44 			"/>
		</g>
	</g>
</g>
</svg>
