<?xml version="1.0" standalone="no"?>
<!DOCTYPE svg PUBLIC "-//W3C//DTD SVG 20010904//EN"
 "http://www.w3.org/TR/2001/REC-SVG-20010904/DTD/svg10.dtd">
<svg version="1.0" xmlns="http://www.w3.org/2000/svg"
 width="700.000000pt" height="700.000000pt" viewBox="0 0 700.000000 700.000000"
 preserveAspectRatio="xMidYMid meet">
<metadata>
Created by potrace 1.11, written by Peter Selinger 2001-2013
</metadata>
<g transform="translate(0.000000,700.000000) scale(0.100000,-0.100000)"
fill="#000000" stroke="none">
<path d="M3346 5588 c-9 -12 -16 -34 -16 -48 0 -14 -9 -31 -20 -38 -11 -7 -20
-23 -20 -37 0 -14 9 -30 20 -37 14 -9 20 -24 20 -48 0 -24 -6 -39 -20 -48 -11
-7 -20 -23 -20 -37 0 -14 9 -30 20 -37 13 -8 20 -24 20 -43 0 -18 -8 -38 -20
-48 -11 -9 -20 -26 -20 -37 0 -11 9 -28 20 -37 11 -10 20 -29 20 -43 0 -15 7
-35 15 -46 12 -16 14 -113 15 -665 l0 -647 -47 -7 c-156 -22 -327 -136 -380
-252 -33 -71 -31 -124 7 -319 17 -87 32 -191 33 -230 2 -69 1 -72 -36 -115
-155 -181 -194 -243 -222 -361 -22 -91 -30 -252 -16 -320 39 -187 211 -355
436 -424 l59 -19 -404 -5 c-263 -3 -404 -9 -402 -15 1 -7 380 -10 1112 -10
732 0 1111 3 1113 10 1 6 -140 12 -403 15 l-404 5 59 19 c111 34 215 95 290
171 142 142 181 286 140 518 -26 148 -69 230 -195 372 -34 39 -66 81 -72 95
-12 32 -4 107 34 299 36 190 37 244 5 314 -53 116 -224 230 -379 252 l-48 7 0
647 c1 552 3 649 15 665 8 11 15 31 15 46 0 14 9 33 20 43 11 9 20 26 20 37 0
11 -9 28 -20 37 -12 10 -20 30 -20 48 0 19 7 35 20 43 11 7 20 23 20 37 0 14
-9 30 -20 37 -14 9 -20 24 -20 48 0 24 6 39 20 48 11 7 20 23 20 37 0 14 -9
30 -20 37 -11 7 -20 24 -20 38 0 14 -7 36 -16 48 -14 21 -22 22 -154 22 -132
0 -140 -1 -154 -22z m92 -2726 c9 -3 12 213 12 1057 0 701 3 1061 10 1061 7 0
10 -362 10 -1065 0 -703 3 -1065 10 -1065 7 0 10 362 10 1065 0 703 3 1065 10
1065 7 0 10 -362 10 -1066 0 -848 3 -1065 13 -1062 9 4 13 228 15 1066 1 697
6 1062 12 1062 7 0 10 -363 10 -1061 0 -704 3 -1058 10 -1054 7 4 10 368 10
1061 0 696 3 1054 10 1054 7 0 10 -357 10 -1050 0 -1034 0 -1050 19 -1038 61
38 84 163 42 233 -11 20 -21 48 -21 62 0 22 2 24 16 13 27 -24 62 -94 69 -141
12 -80 -24 -163 -92 -209 l-33 -23 0 -293 0 -293 78 -3 c60 -2 77 -6 77 -18 0
-13 -35 -15 -255 -15 -220 0 -255 2 -255 15 0 12 18 16 78 20 l78 5 0 290 0
290 -35 25 c-68 50 -103 129 -91 209 7 47 42 117 69 141 14 11 16 9 16 -13 0
-14 -10 -42 -21 -62 -25 -42 -30 -126 -9 -165 15 -30 60 -80 72 -80 4 0 9 474
10 1053 l3 1052 5 -1059 c4 -835 8 -1060 18 -1064z m-498 -342 c0 -6 -9 -29
-21 -51 -51 -101 -71 -257 -48 -370 16 -75 16 -91 2 -96 -20 -7 -46 104 -46
197 0 47 5 112 12 145 18 81 66 185 85 185 9 0 16 -5 16 -10z m15 -590 c30
-31 36 -43 27 -52 -9 -9 -21 -3 -52 27 -22 21 -40 45 -40 52 0 24 26 13 65
-27z"/>
<path d="M3430 2819 c0 -2 -2 -133 -3 -292 -1 -186 2 -287 8 -287 11 0 13 565
2 577 -4 3 -7 4 -7 2z"/>
<path d="M3560 2530 c0 -187 4 -290 10 -290 6 0 10 103 10 290 0 187 -4 290
-10 290 -6 0 -10 -103 -10 -290z"/>
<path d="M3470 2525 c0 -183 4 -285 10 -285 6 0 10 102 10 285 0 183 -4 285
-10 285 -6 0 -10 -102 -10 -285z"/>
<path d="M3518 2804 c-8 -35 -1 -564 7 -564 12 0 14 554 3 566 -5 4 -9 3 -10
-2z"/>
<path d="M2770 1425 c0 -13 88 -15 730 -15 642 0 730 2 730 15 0 13 -88 15
-730 15 -642 0 -730 -2 -730 -15z"/>
<path d="M3220 1225 c0 -13 20 -15 150 -13 92 2 150 7 150 13 0 6 -58 11 -150
13 -130 2 -150 0 -150 -13z"/>
<path d="M3687 1234 c-14 -14 6 -24 49 -24 32 0 44 4 44 15 0 11 -11 15 -43
15 -24 0 -47 -3 -50 -6z"/>
</g>
</svg>
